<svg xmlns="http://www.w3.org/2000/svg" xmlns:xlink="http://www.w3.org/1999/xlink" viewBox="0 0 1080 350"><defs><style>.cls-1{stroke:aqua;fill:url(#linear-gradient);}.cls-1,.cls-32,.cls-33{stroke-miterlimit:10;}.cls-2{fill:#f5f5f5;}.cls-3{fill:#e6e6e6;}.cls-4{fill:#37474f;}.cls-5{fill:#455a64;}.cls-23,.cls-35,.cls-6{fill:#27debf;}.cls-18,.cls-19,.cls-23,.cls-7{opacity:0.6;}.cls-15,.cls-16,.cls-8{opacity:0.5;}.cls-30,.cls-9{opacity:0.4;}.cls-10{opacity:0.15;}.cls-11,.cls-17{fill:#263238;}.cls-12{fill:#e0e0e0;}.cls-13{fill:#ebebeb;}.cls-14,.cls-15,.cls-18,.cls-20,.cls-34,.cls-39{fill:#fff;}.cls-17,.cls-22{opacity:0.9;}.cls-20,.cls-21{opacity:0.8;}.cls-24{opacity:0.7;}.cls-25,.cls-36{opacity:0.3;}.cls-26{opacity:0.25;}.cls-27,.cls-35{opacity:0.1;}.cls-28{fill:#ffa8a7;}.cls-29{fill:#fafafa;}.cls-31{fill:#f28f8f;}.cls-32,.cls-33{fill:none;stroke:#263238;}.cls-32{stroke-width:1.21px;}.cls-33{stroke-width:1.03px;}.cls-34{opacity:0.75;}.cls-37{opacity:0.2;}.cls-38{fill:#f0f0f0;}.cls-39{font-size:100px;font-family:Courgette-Regular, Courgette;}</style><linearGradient id="linear-gradient" x1="-192.83" y1="52.24" x2="1333.87" y2="52.24" gradientUnits="userSpaceOnUse"><stop offset="0" stop-color="#62c9d4"/><stop offset="1" stop-color="#436391"/></linearGradient></defs><g id="Layer_2" data-name="Layer 2"><path class="cls-1" d="M-67.5,371.5c61.32,11.42,105.63-82.32,248-95,26.53-2.36,48.17-2.62,64.62-.23,61,8.87,94.93,43.31,208.38,52.23,164.6,12.94,181.52-53.78,356-33,49.37,5.88,127.94,20.74,192,35,118.48,26.37,129.68,38.27,161,31,108.65-25.21,205.1-207.72,160-341-13.12-38.77-49.62-107.06-257-189-76.61-30.27-530.67-201.77-1025-10-99.75,38.7-161.15,78.65-198,145C-243.19,120.77-157.16,354.81-67.5,371.5Z"/></g><g id="Layer_3" data-name="Layer 3"><ellipse id="Floor" class="cls-2" cx="216.83" cy="197.37" rx="127.17" ry="70.41"/><path id="Shadow" class="cls-3" d="M331.3,186.47l-70.89,40.95a2.08,2.08,0,0,1-1.91,0l-102.21-59a.58.58,0,0,1,0-1.1l70.89-40.95a2.12,2.12,0,0,1,1.9,0l102.22,59A.58.58,0,0,1,331.3,186.47Z"/><ellipse id="Shadow-2" data-name="Shadow" class="cls-3" cx="166.56" cy="225.75" rx="42.58" ry="24.59"/><ellipse id="Shadow-3" data-name="Shadow" class="cls-3" cx="218.41" cy="197.24" rx="33.52" ry="19.35"/><ellipse id="Shadow-4" data-name="Shadow" class="cls-3" cx="292.96" cy="223.18" rx="21.04" ry="12.15"/><g id="Desk"><g id="Table"><path class="cls-4" d="M262,154.27v62.92a1.39,1.39,0,0,1-.63,1.1l-1.35.78a1.42,1.42,0,0,1-1.27,0l-1.35-.78a1.4,1.4,0,0,1-.64-1.1V154.27c0-.41.29-.57.64-.37l1.35.78a1.42,1.42,0,0,0,1.27,0l1.35-.78C261.67,153.7,262,153.86,262,154.27Z"/><path class="cls-5" d="M258.7,219.07l-1.35-.78a1.4,1.4,0,0,1-.64-1.1V154.27c0-.41.29-.57.64-.37l1.35.78a1.4,1.4,0,0,1,.63,1.1V218.7C259.33,219.11,259.05,219.27,258.7,219.07Z"/><path class="cls-4" d="M319.53,121v62.92a1.4,1.4,0,0,1-.64,1.1l-1.35.78a1.42,1.42,0,0,1-1.27,0l-1.35-.78a1.39,1.39,0,0,1-.63-1.1V121c0-.41.28-.57.63-.37l1.35.78a1.42,1.42,0,0,0,1.27,0l1.35-.78C319.24,120.44,319.53,120.6,319.53,121Z"/><path class="cls-5" d="M316.27,185.81l-1.35-.78a1.39,1.39,0,0,1-.63-1.1V121c0-.41.28-.57.63-.37l1.35.78a1.41,1.41,0,0,1,.64,1.1v62.92C316.91,185.85,316.62,186,316.27,185.81Z"/><path class="cls-4" d="M184.41,109.52v62.93a1.42,1.42,0,0,1-.63,1.1l-1.35.78a1.42,1.42,0,0,1-1.27,0l-1.35-.78a1.43,1.43,0,0,1-.64-1.1V109.52c0-.4.29-.57.64-.36l1.35.78a1.42,1.42,0,0,0,1.27,0l1.35-.78C184.13,109,184.41,109.12,184.41,109.52Z"/><path class="cls-5" d="M181.16,174.33l-1.35-.78a1.43,1.43,0,0,1-.64-1.1V109.52c0-.4.29-.57.64-.36l1.35.78a1.39,1.39,0,0,1,.63,1.1V174C181.79,174.36,181.51,174.53,181.16,174.33Z"/><path class="cls-6" d="M332.05,125.48V125a2.55,2.55,0,0,0-1.15-2L229.37,64.46a2.54,2.54,0,0,0-2.31,0L164.6,100.53a2.57,2.57,0,0,0-1.16,2V103a2.56,2.56,0,0,0,1.16,2l101.53,58.56a2.54,2.54,0,0,0,2.31,0l62.46-36.07A2.56,2.56,0,0,0,332.05,125.48Z"/><path class="cls-7" d="M332.05,125.48V125a2.55,2.55,0,0,0-1.15-2L229.37,64.46a2.54,2.54,0,0,0-2.31,0L164.6,100.53a2.57,2.57,0,0,0-1.16,2V103a2.56,2.56,0,0,0,1.16,2l101.53,58.56a2.54,2.54,0,0,0,2.31,0l62.46-36.07A2.56,2.56,0,0,0,332.05,125.48Z"/><path class="cls-6" d="M267.28,160.71v3.13a2.43,2.43,0,0,0,1.16-.28l62.46-36.07a2.57,2.57,0,0,0,1.15-2V125a2.56,2.56,0,0,0-.94-1.85c.42.36.35.86-.21,1.19l-62.46,36.07A2.32,2.32,0,0,1,267.28,160.71Z"/><path class="cls-8" d="M267.28,160.71v3.13a2.43,2.43,0,0,0,1.16-.28l62.46-36.07a2.57,2.57,0,0,0,1.15-2V125a2.56,2.56,0,0,0-.94-1.85c.42.36.35.86-.21,1.19l-62.46,36.07A2.32,2.32,0,0,1,267.28,160.71Z"/><path class="cls-6" d="M330.9,124.36l-62.46,36.07a2.54,2.54,0,0,1-2.31,0L164.6,101.87a.71.71,0,0,1,0-1.34l62.46-36.07a2.54,2.54,0,0,1,2.31,0L330.9,123A.71.71,0,0,1,330.9,124.36Z"/><path class="cls-9" d="M330.9,124.36l-62.46,36.07a2.54,2.54,0,0,1-2.31,0L164.6,101.87a.71.71,0,0,1,0-1.34l62.46-36.07a2.54,2.54,0,0,1,2.31,0L330.9,123A.71.71,0,0,1,330.9,124.36Z"/></g><g id="Keyboard"><path id="Shadow-5" data-name="Shadow" class="cls-10" d="M259.61,123.57l-14.8,8.57a1.86,1.86,0,0,1-1.66,0l-43.72-25.21c-.46-.26-.46-.69,0-1l14.8-8.57a1.86,1.86,0,0,1,1.66,0l43.72,25.21C260.07,122.87,260.07,123.3,259.61,123.57Z"/><g id="Keyboard-2" data-name="Keyboard"><path class="cls-11" d="M200.33,104.45a.59.59,0,0,1,.34-.48l13.91-8a1.84,1.84,0,0,1,1.65,0l42.43,24.53a.6.6,0,0,1,.34.48v1.46a.59.59,0,0,1-.35.48l-13.89,8a1.8,1.8,0,0,1-1.66,0l-42.43-24.49a.58.58,0,0,1-.34-.48Z"/><path class="cls-4" d="M244.76,129.43l13.89-8a.51.51,0,0,0,0-1L216.23,96a1.84,1.84,0,0,0-1.65,0l-13.91,8c-.46.27-.46.7,0,1l42.43,24.5A1.86,1.86,0,0,0,244.76,129.43Z"/><path class="cls-11" d="M244,129.62v1.5a1.8,1.8,0,0,0,.78-.2l13.89-8a.59.59,0,0,0,.35-.48V121a.61.61,0,0,1-.35.48l-13.89,8A1.67,1.67,0,0,1,244,129.62Z"/><path class="cls-6" d="M202.9,104.56s0,0,0,0l1.38-.79,1.87,1.08-1.39.82-1.86-1.08Zm2.16-1.24s0,0,0,0l1.37-.79,1.47.84-1.39.82-1.46-.84Zm.45,2.75v0l1.38-.8,1.46.85-1.38.82-1.47-.84Zm1.7-4h0l1.38-.8,2.36,1.37-1.38.82-2.37-1.37Zm0,2.52s0,0,0,0l1.38-.79,1.16.67-1.38.82-1.16-.67Zm.46,2.75s0,0,0,0l1.37-.79,1.47.84-1.39.83-1.46-.85Zm1.45-1.65s0,0,0,0l1.38-.79,1.16.67-1.38.82-1.17-.67Zm.2-4.86s0,0,0,0l1.37-.79,1.87,1.08-1.39.82-1.86-1.08Zm.56,7.78h0l1.38-.8,10.59,6.12-1.38.82-10.59-6.12Zm.39-4.74a0,0,0,0,1,0,0l1.38-.79,1.16.67-1.38.82-1.17-.67Zm.76,2.92s0,0,0,0l1.37-.79,1.17.67-1.39.82-1.16-.67Zm.44-7.2a0,0,0,0,1,0,0l1.38-.8,1.16.68-1.39.82-1.16-.67Zm.45,2.75a0,0,0,0,1,0,0l1.38-.8,1.16.68-1.38.82-1.16-.67Zm.26,2.63s0,0,0,0l1.37-.79,1.17.67-1.39.82-1.16-.67Zm.75,2.92s0,0,0,0l1.38-.79,1.16.67-1.38.82L213,107.9Zm.45-7.2s0,0,0,0l1.37-.8,1.17.68-1.39.82-1.16-.67Zm.45,2.75v0l1.37-.8,1.17.68-1.39.82-1.16-.67Zm.25,2.63v0l1.38-.79,1.16.67-1.38.82-1.16-.67Zm0-8a0,0,0,0,1,0,0l1.38-.8,1.46.85-1.38.82-1.46-.84Zm.76,10.91v0l1.37-.79,1.17.67-1.39.82-1.16-.67Zm.44-7.2a0,0,0,0,1,0,0l1.38-.79,1.16.67-1.38.82-1.17-.67Zm.45,2.75a0,0,0,0,1,0,0l1.38-.8,1.17.68-1.39.82-1.16-.67Zm.26,2.63a0,0,0,0,1,0,0l1.37-.79,1.17.67-1.39.82-1.16-.67Zm.75,2.92s0,0,0,0l1.38-.79,1.16.67-1.38.82-1.16-.67Zm.38-10.26a0,0,0,0,1,0,0l1.38-.79,1.16.67-1.39.82-1.16-.67Zm.07,3.06s0,0,0,0l1.37-.79,1.17.67-1.39.82-1.16-.67Zm.45,2.75a0,0,0,0,1,0,0l1.38-.8,1.16.68-1.38.82-1.17-.67Zm.25,2.63v0l1.38-.79,1.16.67-1.38.82-1.16-.67Zm.76,2.92h0l1.37-.8,1.17.67-1.39.83-1.16-.68Zm.38-10.26v0l1.38-.79,1.17.67-1.39.82-1.16-.67Zm.06,3.06v0l1.38-.79,1.16.67-1.38.82-1.16-.67Zm.46,2.75s0,0,0,0l1.37-.79,1.17.67-1.39.82-1.16-.67Zm.25,2.63a0,0,0,0,1,0,0l1.38-.79,1.16.67-1.39.82-1.16-.67Zm.76,2.92h0l1.38-.8,1.16.67-1.38.82-1.16-.67ZM221,102a0,0,0,0,1,0,0l1.38-.79,1.16.67-1.38.82L221,102Zm.07,3.06a0,0,0,0,1,0,0l1.37-.79,1.17.67-1.39.82-1.16-.67Zm.21,10.07v0l1.37-.79,1.47.84-1.39.82-1.46-.84Zm.24-7.32a0,0,0,0,1,0,0l1.38-.8,1.16.68-1.38.82-1.17-.67Zm.26,2.63v0l1.38-.79,1.17.67-1.39.82-1.16-.67Zm.75,2.92a0,0,0,0,1,0,0l1.38-.8,1.16.67-1.39.83-1.16-.68Zm.38-10.26v0l1.37-.79,1.17.67-1.39.82-1.16-.67Zm.06,3.06v0l1.38-.79,1.16.67-1.38.82L223,106.2Zm.46,2.75s0,0,0,0l1.37-.79,1.17.67-1.39.82-1.16-.67Zm.06,7.49s0,0,0,0l1.37-.79,1.47.85-1.39.82-1.46-.85Zm.19-4.86s0,0,0,0l1.38-.79,1.16.67-1.38.82-1.17-.67Zm.76,2.92h0l1.37-.8,1.17.67-1.39.83-1.16-.68Zm.44-7.2a0,0,0,0,1,0,0l1.38-.79,1.16.67L226,108l-1.16-.67Zm.45,2.75a0,0,0,0,1,0,0l1.38-.79,1.16.67-1.38.82-1.16-.67Zm.26,2.63s0,0,0,0l1.37-.79,1.17.67-1.39.82-1.16-.67Zm.05-8v0l1.38-.79,1.16.67-1.38.82-1.17-.67Zm0,13v0l1.38-.8,1.46.85-1.38.82-1.47-.84Zm.65-2.12h0l1.38-.8,1.16.67-1.38.83-1.17-.68Zm.45-7.2s0,0,0,0l1.37-.79,1.17.67-1.39.82-1.16-.67Zm.45,2.75a0,0,0,0,1,0,0l1.38-.79,1.16.67-1.39.82-1.16-.67Zm.25,2.63s0,0,0,0l1.38-.79,1.16.67-1.38.82-1.16-.67Zm.06-8s0,0,0,0l1.37-.79,1.17.67-1.39.82-1.16-.67Zm.35,13.17a0,0,0,0,1,0,0l1.37-.79,1.87,1.08-1.38.82L227.88,119Zm.35-2.28s0,0,0,0l1.37-.8,3.68,2.12-1.39.82-3.67-2.12Zm.44-7.21v0l1.38-.79,1.16.67-1.38.82-1.17-.67Zm.46,2.75s0,0,0,0l1.37-.79,1.17.67-1.39.82-1.16-.67Zm.25,2.63s0,0,0,0l1.37-.79,1.17.67-1.39.82-1.16-.67Zm.05-8v0l1.38-.79,1.16.67-1.38.82-1.16-.67Zm1.15,3.68s0,0,0,0l1.37-.79,1.17.67-1.39.82-1.16-.67Zm.31,10.13s0,0,0,0l1.37-.79,1.17.67-1.39.82-1.16-.67Zm.14-7.38a0,0,0,0,1,0,0l1.38-.79,1.16.67-1.38.82-1.17-.67Zm.25,2.63a0,0,0,0,1,0,0l1.38-.8,1.06.61a.66.66,0,0,0,.34.07.7.7,0,0,0,.35-.07l1.81-1,1.36.79-3.53,2.06-2.77-1.6Zm.06-8s0,0,0,0l1.37-.79,1.17.67-1.39.82-1.16-.67Zm1.14,3.68v0l1.38-.79,1.16.67-1.38.82-1.16-.67Zm.31,10.13v0l1.38-.79,1.16.67-1.38.82-1.16-.67Zm.15-7.38s0,0,0,0l1.37-.79,1.17.67-1.39.82-1.16-.67Zm1.13-4.85a0,0,0,0,1,0,0l1.38-.79,1.16.67-1.38.82-1.16-.67Zm.32,3.2s0,0,0,0l1.37-.79,1.17.67-1.39.82-1.16-.67Zm.31,10.13a0,0,0,0,1,0,0l1.38-.79,1.16.67-1.39.82-1.16-.67Zm.25-2.35h0l1.37-.8,1.17.68-1.39.82-1.16-.68Zm1-9.88v0l1.38-.79,1.16.67-1.39.82L236,110.7Zm.31,3.2a0,0,0,0,1,0,0l1.38-.79,2.07,1.19-1.39.82-2.06-1.19Zm.72,10.36s0,0,0,0l1.37-.79,3.07,1.77-1.38.82L237,124.26Zm.34-7.26v0l1.38-.8,1.16.68-1.38.82-1.17-.67Zm.54-5.2s0,0,0,0l1.37-.79,1.16.67-1.38.82-1.16-.67ZM239.16,123a0,0,0,0,1,0,0l1.38-.8,1.16.68-1.38.82-1.17-.67Zm.1-4.92s0,0,0,0l1.37-.79,1.17.67-1.39.82-1.16-.67Zm.24-2.35h0l1.38-.8,1.16.67-1.38.83-1.16-.68Zm.29-2.85a0,0,0,0,1,0,0l1.38-.79,1.16.67-1.38.82-1.17-.67Zm1,13.56s0,0,0,0l1.37-.79,1.17.67-1.39.82-1.16-.67Zm.25-2.34s0,0,0,0l1.37-.8,1.17.68-1.39.82-1.16-.67Zm.09-4.92v0l1.38-.79,1.16.67-1.38.82-1.17-.67Zm.16,2.57h0l1.38-.8,1.16.67-1.38.82-1.16-.67Zm.09-4.92a0,0,0,0,1,0,0l1.38-.8,1.16.67-1.38.83-1.17-.68Zm.71-2.61a0,0,0,0,1,0,0l1.37-.8,1.17.67-1.39.83-1.16-.68Zm.6,13.32s0,0,0,0l3.53-2,1.17.67-3.54,2.06-1.16-.67Zm.25-2.34v0l1.38-.79,1.16.67-1.38.82-1.17-.67Zm.25-2.35a0,0,0,0,1,0,0l1.38-.8,1.16.67-1.38.83-1.17-.68Zm.1-4.92h0l1.37-.8,1.17.67-1.39.83-1.16-.68Zm.15,2.58s0,0,0,0l1.37-.79,1.17.67-1.39.82-1.16-.67Zm.55-5.19h0l1.38-.8,1.16.67-1.38.83-1.16-.67Zm1.11,8.63h0l1.37-.8,1.17.67-1.39.83-1.16-.68Zm.24-2.34a0,0,0,0,1,0,0l1.38-.79,1.16.67-1.38.82-1.16-.67Zm.25-2.34a0,0,0,0,1,0,0l1.38-.8,1.16.68-1.38.82-1.16-.67Zm.31-2.84v0l1.38-.8,1.16.68-1.38.82-1.17-.68Zm1.1,8.62a0,0,0,0,1,0,0l3.53-2,1.17.67-3.54,2.07-1.17-.68Zm.25-2.34s0,0,0,0l1.38-.79,1.16.67-1.39.82-1.16-.67Zm.25-2.34s0,0,0,0l1.37-.8,1.17.68-1.39.82-1.16-.67Zm1.26-2.93a0,0,0,0,1,0,0l.58-.35,1.17.68-.6.37-1.16-.67Zm.64,4a0,0,0,0,1,0,0l1.38-.8,1.16.68-1.38.82-1.16-.67Zm1.27-2.93s0,0,0,0l.58-.34,1.17.67-.6.37-1.16-.67Zm.64,4a0,0,0,0,1,0,0l1.38-.8,1.16.68-1.39.82-1.16-.67Zm1.26-2.93a0,0,0,0,1,0,0l.59-.34,1.16.67-.6.37-1.16-.67Zm1.91,1.1s0,0,0,0l.58-.34,1.17.67-.6.37-1.16-.67Z"/></g></g><g id="Device"><polygon id="Shadow-6" data-name="Shadow" class="cls-10" points="293.8 125.23 306.82 117.72 241.73 80.14 228.71 87.65 293.8 125.23"/><g id="Monitor"><path class="cls-3" d="M256.94,113l-9.29-5.38a2.42,2.42,0,0,1-1.44-2v-1.29l8.75-5a2,2,0,0,0,.92-1.6V86.3l16.23,9.38v11.46a2,2,0,0,1-.92,1.6L263.88,113A7.71,7.71,0,0,1,256.94,113Z"/><path class="cls-12" d="M268.22,109.17v1.29l3-1.72a2,2,0,0,0,.93-1.6V95.68L269,93.9c-.06.78-.13,1.6-.19,2.39L271,97.54v8.95a2,2,0,0,1-.92,1.61Z"/><path class="cls-2" d="M271,106.5a2,2,0,0,1-.92,1.6l-6.19,3.6a7.66,7.66,0,0,1-6.93,0l-9.3-5.38c-1.92-1.1-1.92-2.9,0-4l6.19-3.61a2,2,0,0,0,.92-1.6v-9L271,97.54Z"/><path class="cls-13" d="M252,99.81h0l1.89-1.09a2,2,0,0,0,.92-1.6v-9L271,97.54v9a2,2,0,0,1-.92,1.6l-1.85,1.07Z"/><path class="cls-13" d="M246.21,104.33v1.29a2.42,2.42,0,0,0,1.44,2l9.29,5.37a6.89,6.89,0,0,0,3.32.83v-1.29a7,7,0,0,1-3.32-.82l-9.29-5.38A2.44,2.44,0,0,1,246.21,104.33Z"/><path class="cls-5" d="M297.06,118.86a2.49,2.49,0,0,1-2.24,0L232,82.57a2.55,2.55,0,0,1-1.16-2V25.62a2.18,2.18,0,0,1,3.33-1.92L297,59.94a2.58,2.58,0,0,1,1.15,2v55A2.49,2.49,0,0,1,297.06,118.86Z"/><path class="cls-4" d="M294.82,118.81,232,82.57a2.55,2.55,0,0,1-1.16-2V25.62c0-.74.52-1,1.16-.67L294.82,61.2a2.55,2.55,0,0,1,1.15,2v55C296,118.88,295.46,119.18,294.82,118.81Z"/><path class="cls-12" d="M295,119a2.15,2.15,0,0,0,3.15-2v-6.18L296,112.11v6.18C296,119,295.55,119.27,295,119Z"/><path class="cls-14" d="M296,112.11v6.18c0,.74-.51,1-1.15.67L232,82.71a2.55,2.55,0,0,1-1.16-2V74.53Z"/><path class="cls-6" d="M293.8,107.41V63.92a1.54,1.54,0,0,0-.69-1.2L233.75,28.44c-.39-.22-.7,0-.7.4v43.5a1.52,1.52,0,0,0,.7,1.2l59.36,34.27C293.49,108,293.8,107.85,293.8,107.41Z"/><path class="cls-15" d="M293.8,107.41V63.92a1.54,1.54,0,0,0-.69-1.2L233.75,28.44c-.39-.22-.7,0-.7.4v43.5a1.52,1.52,0,0,0,.7,1.2l59.36,34.27C293.49,108,293.8,107.85,293.8,107.41Z"/><path class="cls-5" d="M263.43,95.68a2.4,2.4,0,0,1,1.08,1.88c0,.69-.48,1-1.08.63a2.41,2.41,0,0,1-1.09-1.88C262.34,95.62,262.83,95.34,263.43,95.68Z"/><path class="cls-11" d="M295.63,62.05A2.55,2.55,0,0,1,296,63.2v48.91l2.16-1.25V62a2.41,2.41,0,0,0-.34-1.15Z"/></g></g><g id="Window"><g id="Window-2" data-name="Window"><path class="cls-5" d="M241.15,14.27s0-.06,0-.1v0a.3.3,0,0,1,0-.1.61.61,0,0,1,.07-.14s0,0,0-.06,0,0,0,0a.23.23,0,0,1,.07-.07h0l.09-.05a.81.81,0,0,1,.75.09l73.26,42.28A2.46,2.46,0,0,1,316.63,58v53h0v.25a.73.73,0,0,1-.39.66l-.05,0-.06,0-.09,0-.15,0a.75.75,0,0,1-.36-.11h0l-1.06-.61L242.26,69.62a2.42,2.42,0,0,1-1.11-1.91V14.27Z"/><path class="cls-6" d="M241.51,13.68a.81.81,0,0,1,.75.09l73.26,42.28A2.46,2.46,0,0,1,316.63,58v3.62l1.41-.83V57.17a2.46,2.46,0,0,0-1.11-1.92L243.67,13a.78.78,0,0,0-.8-.06C242.67,13,241.75,13.56,241.51,13.68Z"/><path class="cls-6" d="M241.15,14.4c0-.69.5-1,1.11-.63l73.26,42.28A2.46,2.46,0,0,1,316.63,58v3.62L241.15,18Z"/><g class="cls-16"><path class="cls-14" d="M242.26,13.77l73.26,42.28a2.37,2.37,0,0,1,.78.82l1.4-.81a2.23,2.23,0,0,0-.77-.81L243.67,13a.78.78,0,0,0-.8-.06l-1.36.77A.81.81,0,0,1,242.26,13.77Z"/></g><path class="cls-10" d="M318,60.76V57.17a2.24,2.24,0,0,0-.34-1.11l-1.41.81a2.19,2.19,0,0,1,.33,1.1v3.62Z"/><path class="cls-5" d="M314.13,56.82a1.66,1.66,0,0,1,.62,1.32c0,.53-.28.8-.62.6a1.63,1.63,0,0,1-.63-1.32C313.5,56.89,313.78,56.62,314.13,56.82Z"/><path class="cls-5" d="M311.88,55.52a1.66,1.66,0,0,1,.62,1.32c0,.53-.28.8-.62.6a1.63,1.63,0,0,1-.63-1.32C311.25,55.59,311.53,55.32,311.88,55.52Z"/><path class="cls-5" d="M309.63,54.21a1.68,1.68,0,0,1,.62,1.33c0,.53-.28.8-.62.6a1.63,1.63,0,0,1-.63-1.32C309,54.28,309.28,54,309.63,54.21Z"/><path class="cls-17" d="M316.23,111.92l0,0,1.17-.67a1.17,1.17,0,0,0,.58-.86.86.86,0,0,0,0-.16V60.76l-1.41.83v49.66a.71.71,0,0,1-.35.62l0,0h0Z"/></g><g id="Code"><path class="cls-6" d="M263.59,36.91,279,45.81a.85.85,0,0,1,.39.65c0,.24-.18.33-.39.2l-15.45-8.9a.84.84,0,0,1-.39-.65C263.2,36.87,263.37,36.78,263.59,36.91Z"/><path class="cls-3" d="M269.49,54l5.86,3.36a.87.87,0,0,1,.39.66c0,.23-.18.32-.39.2l-5.86-3.37a.87.87,0,0,1-.39-.66C269.1,53.91,269.28,53.82,269.49,54Z"/><path class="cls-3" d="M269.49,57.35l5.86,3.37a.87.87,0,0,1,.39.65c0,.24-.18.33-.39.2l-5.86-3.36a.87.87,0,0,1-.39-.66C269.1,57.32,269.28,57.23,269.49,57.35Z"/><path class="cls-6" d="M280.56,46.69,311.48,64.5a.84.84,0,0,1,.4.65c0,.24-.18.33-.4.2L280.56,47.54a.83.83,0,0,1-.39-.65C280.17,46.65,280.34,46.56,280.56,46.69Z"/><path class="cls-6" d="M269.62,77.84,279,83.29a.87.87,0,0,1,.39.65c0,.24-.18.33-.39.2l-9.42-5.45a.81.81,0,0,1-.39-.65C269.23,77.81,269.4,77.72,269.62,77.84Z"/><path class="cls-6" d="M280.56,84.17,311.48,102a.85.85,0,0,1,.4.65c0,.24-.18.33-.4.2L280.56,85a.83.83,0,0,1-.39-.65C280.17,84.13,280.34,84,280.56,84.17Z"/><path class="cls-6" d="M263.59,40.32l7.78,4.47a.84.84,0,0,1,.39.66c0,.23-.17.32-.39.2l-7.78-4.47a.84.84,0,0,1-.39-.66C263.2,40.29,263.37,40.2,263.59,40.32Z"/><path class="cls-18" d="M263.59,40.32l7.78,4.47a.84.84,0,0,1,.39.66c0,.23-.17.32-.39.2l-7.78-4.47a.84.84,0,0,1-.39-.66C263.2,40.29,263.37,40.2,263.59,40.32Z"/><path class="cls-6" d="M263.59,43.72l3.64,2.1a.84.84,0,0,1,.39.66c0,.23-.17.32-.39.2l-3.64-2.1a.84.84,0,0,1-.39-.66C263.2,43.69,263.37,43.6,263.59,43.72Z"/><path class="cls-18" d="M263.59,43.72l3.64,2.1a.84.84,0,0,1,.39.66c0,.23-.17.32-.39.2l-3.64-2.1a.84.84,0,0,1-.39-.66C263.2,43.69,263.37,43.6,263.59,43.72Z"/><path class="cls-6" d="M263.59,50.54l3.64,2.1a.83.83,0,0,1,.39.65c0,.24-.17.33-.39.2l-3.64-2.1a.83.83,0,0,1-.39-.65C263.2,50.5,263.37,50.41,263.59,50.54Z"/><path class="cls-18" d="M263.59,50.54l3.64,2.1a.83.83,0,0,1,.39.65c0,.24-.17.33-.39.2l-3.64-2.1a.83.83,0,0,1-.39-.65C263.2,50.5,263.37,50.41,263.59,50.54Z"/><path class="cls-6" d="M263.59,54l3.64,2.1a.81.81,0,0,1,.39.65c0,.23-.17.32-.39.2l-3.64-2.1a.84.84,0,0,1-.39-.65C263.2,53.91,263.37,53.82,263.59,54Z"/><path class="cls-18" d="M263.59,54l3.64,2.1a.81.81,0,0,1,.39.65c0,.23-.17.32-.39.2l-3.64-2.1a.84.84,0,0,1-.39-.65C263.2,53.91,263.37,53.82,263.59,54Z"/><path class="cls-6" d="M272.89,45.67l4.67,2.71A.81.81,0,0,1,278,49c0,.23-.17.32-.39.2l-4.67-2.7a.87.87,0,0,1-.39-.66C272.5,45.64,272.68,45.55,272.89,45.67Z"/><path class="cls-18" d="M272.89,45.67l4.67,2.71A.81.81,0,0,1,278,49c0,.23-.17.32-.39.2l-4.67-2.7a.87.87,0,0,1-.39-.66C272.5,45.64,272.68,45.55,272.89,45.67Z"/><path class="cls-14" d="M280.11,70.31l31.37,18.06a.85.85,0,0,1,.4.65c0,.24-.18.33-.4.2L280.11,71.16a.84.84,0,0,1-.39-.65C279.72,70.27,279.89,70.18,280.11,70.31Z"/><path class="cls-14" d="M306.82,82.26l4.66,2.7a.84.84,0,0,1,.4.65c0,.24-.18.33-.4.2l-4.66-2.7a.84.84,0,0,1-.39-.65C306.43,82.22,306.6,82.13,306.82,82.26Z"/><path class="cls-14" d="M273.92,63.31l31.37,18.07a.82.82,0,0,1,.4.65c0,.23-.18.32-.4.2L273.92,64.16a.81.81,0,0,1-.39-.65C273.53,63.28,273.7,63.19,273.92,63.31Z"/><path class="cls-6" d="M269.49,47.13l7.78,4.47a.86.86,0,0,1,.4.66c0,.23-.18.32-.4.19L269.49,48a.84.84,0,0,1-.39-.65C269.1,47.1,269.28,47,269.49,47.13Z"/><path class="cls-18" d="M269.49,47.13l7.78,4.47a.86.86,0,0,1,.4.66c0,.23-.18.32-.4.19L269.49,48a.84.84,0,0,1-.39-.65C269.1,47.1,269.28,47,269.49,47.13Z"/><path class="cls-6" d="M278.8,52.48l32.45,18.78a.84.84,0,0,1,.4.65c0,.24-.18.33-.4.2L278.8,53.33a.82.82,0,0,1-.4-.65C278.4,52.45,278.58,52.36,278.8,52.48Z"/><path class="cls-18" d="M278.8,52.48l32.45,18.78a.84.84,0,0,1,.4.65c0,.24-.18.33-.4.2L278.8,53.33a.82.82,0,0,1-.4-.65C278.4,52.45,278.58,52.36,278.8,52.48Z"/><path class="cls-3" d="M269.49,67.65l42,24.21a.86.86,0,0,1,.4.66c0,.23-.18.32-.4.19l-42-24.21a.87.87,0,0,1-.39-.65C269.1,67.61,269.28,67.52,269.49,67.65Z"/><path class="cls-6" d="M263.59,64.24l3.64,2.1a.83.83,0,0,1,.39.65c0,.24-.17.33-.39.2l-3.64-2.1a.83.83,0,0,1-.39-.65C263.2,64.2,263.37,64.11,263.59,64.24Z"/><path class="cls-18" d="M263.59,64.24l3.64,2.1a.83.83,0,0,1,.39.65c0,.24-.17.33-.39.2l-3.64-2.1a.83.83,0,0,1-.39-.65C263.2,64.2,263.37,64.11,263.59,64.24Z"/><path class="cls-3" d="M269.49,71.05l42,24.22a.84.84,0,0,1,.4.65c0,.24-.18.33-.4.2l-42-24.21a.87.87,0,0,1-.39-.66C269.1,71,269.28,70.93,269.49,71.05Z"/><path class="cls-6" d="M263.59,67.65l3.64,2.1a.81.81,0,0,1,.39.65c0,.23-.17.32-.39.2l-3.64-2.1a.84.84,0,0,1-.39-.65C263.2,67.61,263.37,67.52,263.59,67.65Z"/><path class="cls-18" d="M263.59,67.65l3.64,2.1a.81.81,0,0,1,.39.65c0,.23-.17.32-.39.2l-3.64-2.1a.84.84,0,0,1-.39-.65C263.2,67.61,263.37,67.52,263.59,67.65Z"/><path class="cls-3" d="M269.49,74.46l42,24.22a.82.82,0,0,1,.4.65c0,.23-.18.32-.4.2l-42-24.22a.85.85,0,0,1-.39-.65C269.1,74.42,269.28,74.33,269.49,74.46Z"/><path class="cls-6" d="M263.59,71.05l3.64,2.1a.84.84,0,0,1,.39.66c0,.23-.17.32-.39.19l-3.64-2.09a.84.84,0,0,1-.39-.66C263.2,71,263.37,70.93,263.59,71.05Z"/><path class="cls-18" d="M263.59,71.05l3.64,2.1a.84.84,0,0,1,.39.66c0,.23-.17.32-.39.19l-3.64-2.09a.84.84,0,0,1-.39-.66C263.2,71,263.37,70.93,263.59,71.05Z"/><g class="cls-19"><path class="cls-14" d="M257.92,33.49l2.14,1.24a.85.85,0,0,1,.38.67v.79c0,.24-.17.34-.38.22l-2.14-1.23a.86.86,0,0,1-.39-.68v-.78C257.53,33.47,257.7,33.37,257.92,33.49Z"/><path class="cls-14" d="M257.92,36.93l2.14,1.24a.85.85,0,0,1,.38.67v.79c0,.24-.17.34-.38.22l-2.14-1.24a.83.83,0,0,1-.39-.67v-.78C257.53,36.91,257.7,36.81,257.92,36.93Z"/><path class="cls-14" d="M257.92,40.37l2.14,1.24a.85.85,0,0,1,.38.67v.79c0,.24-.17.34-.38.22l-2.14-1.24a.83.83,0,0,1-.39-.67v-.79C257.53,40.35,257.7,40.25,257.92,40.37Z"/><path class="cls-14" d="M257.92,43.81l2.14,1.24a.85.85,0,0,1,.38.67v.79c0,.24-.17.34-.38.22l-2.14-1.24a.83.83,0,0,1-.39-.67V44C257.53,43.79,257.7,43.69,257.92,43.81Z"/><path class="cls-14" d="M257.92,47.25l2.14,1.24a.85.85,0,0,1,.38.67v.78c0,.25-.17.35-.38.23l-2.14-1.24a.83.83,0,0,1-.39-.67v-.79C257.53,47.23,257.7,47.13,257.92,47.25Z"/><path class="cls-14" d="M257.92,50.69l2.14,1.23a.88.88,0,0,1,.38.68v.78c0,.25-.17.35-.38.23l-2.14-1.24a.83.83,0,0,1-.39-.67v-.79C257.53,50.67,257.7,50.57,257.92,50.69Z"/><path class="cls-14" d="M257.92,54.13l2.14,1.23a.88.88,0,0,1,.38.68v.78c0,.25-.17.35-.38.23l-2.14-1.24a.83.83,0,0,1-.39-.67v-.79C257.53,54.11,257.7,54,257.92,54.13Z"/><path class="cls-14" d="M257.92,57.57l2.14,1.23a.88.88,0,0,1,.38.68v.78c0,.25-.17.35-.38.23l-2.14-1.24a.83.83,0,0,1-.39-.67v-.79C257.53,57.55,257.7,57.45,257.92,57.57Z"/><path class="cls-14" d="M257.92,61l2.14,1.23a.88.88,0,0,1,.38.68v.78c0,.25-.17.35-.38.23l-2.14-1.24a.83.83,0,0,1-.39-.67v-.79C257.53,61,257.7,60.88,257.92,61Z"/><path class="cls-14" d="M257.92,64.45l2.14,1.23a.88.88,0,0,1,.38.68v.78c0,.25-.17.35-.38.23l-2.14-1.24a.83.83,0,0,1-.39-.67v-.79C257.53,64.42,257.7,64.32,257.92,64.45Z"/><path class="cls-14" d="M257.92,67.89l2.14,1.23a.88.88,0,0,1,.38.68v.78c0,.25-.17.35-.38.23l-2.14-1.24a.83.83,0,0,1-.39-.67v-.79C257.53,67.86,257.7,67.76,257.92,67.89Z"/><path class="cls-14" d="M257.92,71.33l2.14,1.23a.88.88,0,0,1,.38.68V74c0,.25-.17.35-.38.23L257.92,73a.83.83,0,0,1-.39-.67v-.79C257.53,71.3,257.7,71.2,257.92,71.33Z"/></g><path class="cls-4" d="M243.72,22.32,255.29,29a1.72,1.72,0,0,1,.78,1.34V43.7c0,.5-.35.7-.78.45l-11.57-6.68a1.71,1.71,0,0,1-.77-1.34V22.77C243,22.27,243.29,22.07,243.72,22.32Z"/><path class="cls-6" d="M244.8,35.56l1.06.62a.81.81,0,0,1,.39.65c0,.23-.17.32-.39.2l-1.06-.62a.84.84,0,0,1-.4-.65C244.4,35.52,244.58,35.43,244.8,35.56Z"/><path class="cls-18" d="M244.8,35.56l1.06.62a.81.81,0,0,1,.39.65c0,.23-.17.32-.39.2l-1.06-.62a.84.84,0,0,1-.4-.65C244.4,35.52,244.58,35.43,244.8,35.56Z"/><path class="cls-6" d="M244.8,24.62l1.06.62a.81.81,0,0,1,.39.65c0,.23-.17.32-.39.2l-1.06-.62a.84.84,0,0,1-.4-.65C244.4,24.58,244.58,24.49,244.8,24.62Z"/><path class="cls-18" d="M244.8,24.62l1.06.62a.81.81,0,0,1,.39.65c0,.23-.17.32-.39.2l-1.06-.62a.84.84,0,0,1-.4-.65C244.4,24.58,244.58,24.49,244.8,24.62Z"/><path class="cls-6" d="M246.29,27.67l1.07.61a.84.84,0,0,1,.39.66c0,.23-.17.32-.39.2l-1.07-.62a.87.87,0,0,1-.39-.65C245.9,27.63,246.08,27.54,246.29,27.67Z"/><path class="cls-18" d="M246.29,27.67l1.07.61a.84.84,0,0,1,.39.66c0,.23-.17.32-.39.2l-1.07-.62a.87.87,0,0,1-.39-.65C245.9,27.63,246.08,27.54,246.29,27.67Z"/><path class="cls-6" d="M246.29,29.85l1.07.62a.81.81,0,0,1,.39.65c0,.23-.17.32-.39.2l-1.07-.62a.85.85,0,0,1-.39-.65C245.9,29.81,246.08,29.72,246.29,29.85Z"/><path class="cls-18" d="M246.29,29.85l1.07.62a.81.81,0,0,1,.39.65c0,.23-.17.32-.39.2l-1.07-.62a.85.85,0,0,1-.39-.65C245.9,29.81,246.08,29.72,246.29,29.85Z"/><path class="cls-6" d="M244.8,31.18l1.06.62a.83.83,0,0,1,.39.65c0,.24-.17.33-.39.2L244.8,32a.82.82,0,0,1-.4-.65C244.4,31.15,244.58,31.06,244.8,31.18Z"/><path class="cls-18" d="M244.8,31.18l1.06.62a.83.83,0,0,1,.39.65c0,.24-.17.33-.39.2L244.8,32a.82.82,0,0,1-.4-.65C244.4,31.15,244.58,31.06,244.8,31.18Z"/><path class="cls-6" d="M246.29,34.23l1.07.62a.83.83,0,0,1,.39.65c0,.24-.17.33-.39.2l-1.07-.62a.84.84,0,0,1-.39-.65C245.9,34.2,246.08,34.11,246.29,34.23Z"/><path class="cls-18" d="M246.29,34.23l1.07.62a.83.83,0,0,1,.39.65c0,.24-.17.33-.39.2l-1.07-.62a.84.84,0,0,1-.39-.65C245.9,34.2,246.08,34.11,246.29,34.23Z"/><path class="cls-6" d="M247.71,26.31l6.51,3.75a.87.87,0,0,1,.39.65c0,.24-.18.33-.39.2l-6.51-3.75a.87.87,0,0,1-.39-.66C247.32,26.27,247.5,26.18,247.71,26.31Z"/><path class="cls-20" d="M247.71,26.31l6.51,3.75a.87.87,0,0,1,.39.65c0,.24-.18.33-.39.2l-6.51-3.75a.87.87,0,0,1-.39-.66C247.32,26.27,247.5,26.18,247.71,26.31Z"/><path class="cls-6" d="M247.71,37.25,254.22,41a.87.87,0,0,1,.39.65c0,.24-.18.33-.39.2l-6.51-3.75a.87.87,0,0,1-.39-.66C247.32,37.21,247.5,37.12,247.71,37.25Z"/><path class="cls-20" d="M247.71,37.25,254.22,41a.87.87,0,0,1,.39.65c0,.24-.18.33-.39.2l-6.51-3.75a.87.87,0,0,1-.39-.66C247.32,37.21,247.5,37.12,247.71,37.25Z"/><path class="cls-6" d="M249.21,29.35l5,2.9a.85.85,0,0,1,.39.65c0,.24-.18.33-.39.2l-5-2.9a.81.81,0,0,1-.39-.65C248.82,29.32,249,29.23,249.21,29.35Z"/><path class="cls-20" d="M249.21,29.35l5,2.9a.85.85,0,0,1,.39.65c0,.24-.18.33-.39.2l-5-2.9a.81.81,0,0,1-.39-.65C248.82,29.32,249,29.23,249.21,29.35Z"/><path class="cls-6" d="M249.21,31.54l5,2.9a.84.84,0,0,1,.39.65c0,.24-.18.32-.39.2l-5-2.9a.83.83,0,0,1-.39-.65C248.82,31.5,249,31.41,249.21,31.54Z"/><path class="cls-20" d="M249.21,31.54l5,2.9a.84.84,0,0,1,.39.65c0,.24-.18.32-.39.2l-5-2.9a.83.83,0,0,1-.39-.65C248.82,31.5,249,31.41,249.21,31.54Z"/><path class="cls-6" d="M247.71,32.87l6.51,3.75a.87.87,0,0,1,.39.66c0,.23-.18.32-.39.2l-6.51-3.76a.85.85,0,0,1-.39-.65C247.32,32.83,247.5,32.74,247.71,32.87Z"/><path class="cls-20" d="M247.71,32.87l6.51,3.75a.87.87,0,0,1,.39.66c0,.23-.18.32-.39.2l-6.51-3.76a.85.85,0,0,1-.39-.65C247.32,32.83,247.5,32.74,247.71,32.87Z"/><path class="cls-6" d="M249.21,35.92l5,2.89a.87.87,0,0,1,.39.66c0,.23-.18.32-.39.19l-5-2.89a.84.84,0,0,1-.39-.65C248.82,35.88,249,35.79,249.21,35.92Z"/><path class="cls-20" d="M249.21,35.92l5,2.89a.87.87,0,0,1,.39.66c0,.23-.18.32-.39.19l-5-2.89a.84.84,0,0,1-.39-.65C248.82,35.88,249,35.79,249.21,35.92Z"/><path class="cls-4" d="M243.72,40l11.57,6.68a1.7,1.7,0,0,1,.78,1.34v26.4c0,.5-.35.7-.78.45l-11.57-6.68a1.71,1.71,0,0,1-.77-1.35V40.43C243,39.94,243.29,39.74,243.72,40Z"/><path class="cls-6" d="M244.8,42.29l1.06.61a.84.84,0,0,1,.39.66c0,.23-.17.32-.39.2l-1.06-.62a.85.85,0,0,1-.4-.65C244.4,42.25,244.58,42.16,244.8,42.29Z"/><path class="cls-18" d="M244.8,42.29l1.06.61a.84.84,0,0,1,.39.66c0,.23-.17.32-.39.2l-1.06-.62a.85.85,0,0,1-.4-.65C244.4,42.25,244.58,42.16,244.8,42.29Z"/><path class="cls-6" d="M246.29,45.34l1.07.61a.84.84,0,0,1,.39.65c0,.24-.17.33-.39.2l-1.07-.61a.87.87,0,0,1-.39-.66C245.9,45.3,246.08,45.21,246.29,45.34Z"/><path class="cls-18" d="M246.29,45.34l1.07.61a.84.84,0,0,1,.39.65c0,.24-.17.33-.39.2l-1.07-.61a.87.87,0,0,1-.39-.66C245.9,45.3,246.08,45.21,246.29,45.34Z"/><path class="cls-6" d="M246.29,47.52l1.07.61a.84.84,0,0,1,.39.66c0,.23-.17.32-.39.2l-1.07-.62a.87.87,0,0,1-.39-.65C245.9,47.48,246.08,47.39,246.29,47.52Z"/><path class="cls-18" d="M246.29,47.52l1.07.61a.84.84,0,0,1,.39.66c0,.23-.17.32-.39.2l-1.07-.62a.87.87,0,0,1-.39-.65C245.9,47.48,246.08,47.39,246.29,47.52Z"/><path class="cls-6" d="M244.8,48.85l1.06.62a.81.81,0,0,1,.39.65c0,.23-.17.32-.39.2l-1.06-.62a.84.84,0,0,1-.4-.65C244.4,48.81,244.58,48.73,244.8,48.85Z"/><path class="cls-18" d="M244.8,48.85l1.06.62a.81.81,0,0,1,.39.65c0,.23-.17.32-.39.2l-1.06-.62a.84.84,0,0,1-.4-.65C244.4,48.81,244.58,48.73,244.8,48.85Z"/><path class="cls-6" d="M247.71,44l6.51,3.76a.85.85,0,0,1,.39.65c0,.24-.18.33-.39.2l-6.51-3.76a.84.84,0,0,1-.39-.65C247.32,43.94,247.5,43.85,247.71,44Z"/><path class="cls-20" d="M247.71,44l6.51,3.76a.85.85,0,0,1,.39.65c0,.24-.18.33-.39.2l-6.51-3.76a.84.84,0,0,1-.39-.65C247.32,43.94,247.5,43.85,247.71,44Z"/><path class="cls-6" d="M249.21,47l5,2.9a.84.84,0,0,1,.39.65c0,.23-.18.32-.39.2l-5-2.9a.83.83,0,0,1-.39-.65C248.82,47,249,46.89,249.21,47Z"/><path class="cls-20" d="M249.21,47l5,2.9a.84.84,0,0,1,.39.65c0,.23-.18.32-.39.2l-5-2.9a.83.83,0,0,1-.39-.65C248.82,47,249,46.89,249.21,47Z"/><path class="cls-6" d="M249.21,49.21l5,2.89a.87.87,0,0,1,.39.66c0,.23-.18.32-.39.2l-5-2.9a.84.84,0,0,1-.39-.65C248.82,49.17,249,49.08,249.21,49.21Z"/><path class="cls-20" d="M249.21,49.21l5,2.89a.87.87,0,0,1,.39.66c0,.23-.18.32-.39.2l-5-2.9a.84.84,0,0,1-.39-.65C248.82,49.17,249,49.08,249.21,49.21Z"/><path class="cls-6" d="M247.71,50.54l6.51,3.75a.87.87,0,0,1,.39.66c0,.23-.18.32-.39.19l-6.51-3.75a.87.87,0,0,1-.39-.65C247.32,50.5,247.5,50.41,247.71,50.54Z"/><path class="cls-20" d="M247.71,50.54l6.51,3.75a.87.87,0,0,1,.39.66c0,.23-.18.32-.39.19l-6.51-3.75a.87.87,0,0,1-.39-.65C247.32,50.5,247.5,50.41,247.71,50.54Z"/><path class="cls-6" d="M246.29,51.91l1.07.62a.83.83,0,0,1,.39.65c0,.24-.17.33-.39.2l-1.07-.62a.84.84,0,0,1-.39-.65C245.9,51.88,246.08,51.79,246.29,51.91Z"/><path class="cls-18" d="M246.29,51.91l1.07.62a.83.83,0,0,1,.39.65c0,.24-.17.33-.39.2l-1.07-.62a.84.84,0,0,1-.39-.65C245.9,51.88,246.08,51.79,246.29,51.91Z"/><path class="cls-6" d="M246.29,54.1l1.07.61a.84.84,0,0,1,.39.65c0,.24-.17.33-.39.2L246.29,55a.87.87,0,0,1-.39-.66C245.9,54.06,246.08,54,246.29,54.1Z"/><path class="cls-18" d="M246.29,54.1l1.07.61a.84.84,0,0,1,.39.65c0,.24-.17.33-.39.2L246.29,55a.87.87,0,0,1-.39-.66C245.9,54.06,246.08,54,246.29,54.1Z"/><path class="cls-6" d="M249.21,53.6l5,2.89a.87.87,0,0,1,.39.66c0,.23-.18.32-.39.2l-5-2.9a.84.84,0,0,1-.39-.65C248.82,53.56,249,53.47,249.21,53.6Z"/><path class="cls-20" d="M249.21,53.6l5,2.89a.87.87,0,0,1,.39.66c0,.23-.18.32-.39.2l-5-2.9a.84.84,0,0,1-.39-.65C248.82,53.56,249,53.47,249.21,53.6Z"/><path class="cls-6" d="M249.21,55.79l5,2.89a.87.87,0,0,1,.39.65c0,.24-.18.33-.39.2l-5-2.89a.84.84,0,0,1-.39-.66C248.82,55.75,249,55.66,249.21,55.79Z"/><path class="cls-20" d="M249.21,55.79l5,2.89a.87.87,0,0,1,.39.65c0,.24-.18.33-.39.2l-5-2.89a.84.84,0,0,1-.39-.66C248.82,55.75,249,55.66,249.21,55.79Z"/><path class="cls-6" d="M244.8,59.82l1.06.61a.84.84,0,0,1,.39.66c0,.23-.17.32-.39.2l-1.06-.62a.85.85,0,0,1-.4-.65C244.4,59.78,244.58,59.69,244.8,59.82Z"/><path class="cls-18" d="M244.8,59.82l1.06.61a.84.84,0,0,1,.39.66c0,.23-.17.32-.39.2l-1.06-.62a.85.85,0,0,1-.4-.65C244.4,59.78,244.58,59.69,244.8,59.82Z"/><path class="cls-6" d="M247.71,61.5l6.51,3.76a.85.85,0,0,1,.39.65c0,.24-.18.33-.39.2l-6.51-3.75a.87.87,0,0,1-.39-.66C247.32,61.47,247.5,61.38,247.71,61.5Z"/><path class="cls-20" d="M247.71,61.5l6.51,3.76a.85.85,0,0,1,.39.65c0,.24-.18.33-.39.2l-6.51-3.75a.87.87,0,0,1-.39-.66C247.32,61.47,247.5,61.38,247.71,61.5Z"/><path class="cls-6" d="M246.29,62.88l1.07.62a.81.81,0,0,1,.39.65c0,.23-.17.32-.39.2l-1.07-.62a.85.85,0,0,1-.39-.65C245.9,62.84,246.08,62.75,246.29,62.88Z"/><path class="cls-18" d="M246.29,62.88l1.07.62a.81.81,0,0,1,.39.65c0,.23-.17.32-.39.2l-1.07-.62a.85.85,0,0,1-.39-.65C245.9,62.84,246.08,62.75,246.29,62.88Z"/><path class="cls-6" d="M246.29,65.06l1.07.62a.83.83,0,0,1,.39.65c0,.24-.17.33-.39.2l-1.07-.62a.84.84,0,0,1-.39-.65C245.9,65,246.08,64.94,246.29,65.06Z"/><path class="cls-18" d="M246.29,65.06l1.07.62a.83.83,0,0,1,.39.65c0,.24-.17.33-.39.2l-1.07-.62a.84.84,0,0,1-.39-.65C245.9,65,246.08,64.94,246.29,65.06Z"/><path class="cls-6" d="M249.21,64.56l5,2.9a.87.87,0,0,1,.39.65c0,.24-.18.33-.39.2l-5-2.89a.84.84,0,0,1-.39-.66C248.82,64.53,249,64.44,249.21,64.56Z"/><path class="cls-20" d="M249.21,64.56l5,2.9a.87.87,0,0,1,.39.65c0,.24-.18.33-.39.2l-5-2.89a.84.84,0,0,1-.39-.66C248.82,64.53,249,64.44,249.21,64.56Z"/><path class="cls-6" d="M249.21,66.75l5,2.9a.85.85,0,0,1,.39.65c0,.24-.18.33-.39.2l-5-2.9a.81.81,0,0,1-.39-.65C248.82,66.72,249,66.63,249.21,66.75Z"/><path class="cls-20" d="M249.21,66.75l5,2.9a.85.85,0,0,1,.39.65c0,.24-.18.33-.39.2l-5-2.9a.81.81,0,0,1-.39-.65C248.82,66.72,249,66.63,249.21,66.75Z"/><path class="cls-6" d="M246.29,56.27l1.07.61a.84.84,0,0,1,.39.66c0,.23-.17.32-.39.19l-1.07-.61a.87.87,0,0,1-.39-.66C245.9,56.23,246.08,56.14,246.29,56.27Z"/><path class="cls-18" d="M246.29,56.27l1.07.61a.84.84,0,0,1,.39.66c0,.23-.17.32-.39.19l-1.07-.61a.87.87,0,0,1-.39-.66C245.9,56.23,246.08,56.14,246.29,56.27Z"/><path class="cls-6" d="M244.8,57.6l1.06.61a.84.84,0,0,1,.39.66c0,.23-.17.32-.39.2l-1.06-.62a.84.84,0,0,1-.4-.65C244.4,57.56,244.58,57.47,244.8,57.6Z"/><path class="cls-18" d="M244.8,57.6l1.06.61a.84.84,0,0,1,.39.66c0,.23-.17.32-.39.2l-1.06-.62a.84.84,0,0,1-.4-.65C244.4,57.56,244.58,57.47,244.8,57.6Z"/><path class="cls-6" d="M249.21,58l5,2.89a.87.87,0,0,1,.39.66c0,.23-.18.32-.39.19l-5-2.89a.84.84,0,0,1-.39-.65C248.82,57.92,249,57.83,249.21,58Z"/><path class="cls-20" d="M249.21,58l5,2.89a.87.87,0,0,1,.39.66c0,.23-.18.32-.39.19l-5-2.89a.84.84,0,0,1-.39-.65C248.82,57.92,249,57.83,249.21,58Z"/><path class="cls-6" d="M247.71,59.29,254.22,63a.87.87,0,0,1,.39.65c0,.24-.18.33-.39.2l-6.51-3.75a.87.87,0,0,1-.39-.66C247.32,59.25,247.5,59.16,247.71,59.29Z"/><path class="cls-20" d="M247.71,59.29,254.22,63a.87.87,0,0,1,.39.65c0,.24-.18.33-.39.2l-6.51-3.75a.87.87,0,0,1-.39-.66C247.32,59.25,247.5,59.16,247.71,59.29Z"/><path class="cls-6" d="M244.8,66.42l1.06.62a.84.84,0,0,1,.39.65c0,.24-.17.33-.39.2l-1.06-.61a.86.86,0,0,1-.4-.66C244.4,66.39,244.58,66.3,244.8,66.42Z"/><path class="cls-18" d="M244.8,66.42l1.06.62a.84.84,0,0,1,.39.65c0,.24-.17.33-.39.2l-1.06-.61a.86.86,0,0,1-.4-.66C244.4,66.39,244.58,66.3,244.8,66.42Z"/><path class="cls-6" d="M247.71,68.11l6.51,3.76a.84.84,0,0,1,.39.65c0,.24-.18.32-.39.2L247.71,69a.84.84,0,0,1-.39-.65C247.32,68.07,247.5,68,247.71,68.11Z"/><path class="cls-20" d="M247.71,68.11l6.51,3.76a.84.84,0,0,1,.39.65c0,.24-.18.32-.39.2L247.71,69a.84.84,0,0,1-.39-.65C247.32,68.07,247.5,68,247.71,68.11Z"/></g></g><g id="Window-3" data-name="Window"><g class="cls-21"><path class="cls-5" d="M308.1,77.09v43.32A2,2,0,0,0,309,122l24.88,14.36a.64.64,0,0,0,.3.09l.12,0a.11.11,0,0,0,.07,0l.05,0,.05,0,.06,0a.78.78,0,0,0,.16-.24,1.1,1.1,0,0,0,.09-.45V92.48a2,2,0,0,0-.9-1.56L309,76.57a.66.66,0,0,0-.61-.07l-.07,0h0a.34.34,0,0,0-.06.06l0,0a.08.08,0,0,0,0,0,.24.24,0,0,0-.06.11.24.24,0,0,0,0,.08v0s0,0,0,.08Z"/></g><path class="cls-6" d="M308.39,76.5a.66.66,0,0,1,.61.07l24.88,14.35a2,2,0,0,1,.9,1.56v2.94l1.44-.83V91.67a2,2,0,0,0-.9-1.56L310.43,75.77a.62.62,0,0,0-.65,0Z"/><path class="cls-6" d="M308.1,77.09c0-.57.4-.8.9-.51l24.88,14.34a2,2,0,0,1,.9,1.56v2.94L308.1,80Z"/><g class="cls-16"><path class="cls-14" d="M309,76.58l24.88,14.34a1.8,1.8,0,0,1,.64.67l1.43-.82a1.91,1.91,0,0,0-.63-.66L310.43,75.77a.62.62,0,0,0-.65,0l-1.38.78A.62.62,0,0,1,309,76.58Z"/></g><path class="cls-10" d="M336.22,94.59V91.67a1.91,1.91,0,0,0-.27-.9l-1.44.81a1.84,1.84,0,0,1,.27.9v2.94Z"/><path class="cls-5" d="M333.48,92.13a1.33,1.33,0,0,1,.5,1.08c0,.43-.22.65-.5.48a1.33,1.33,0,0,1-.51-1.07C333,92.19,333.2,92,333.48,92.13Z"/><path class="cls-5" d="M331.65,91.07a1.33,1.33,0,0,1,.5,1.08c0,.43-.22.65-.5.49a1.37,1.37,0,0,1-.51-1.08C331.14,91.13,331.37,90.91,331.65,91.07Z"/><path class="cls-5" d="M329.82,90a1.35,1.35,0,0,1,.5,1.08c0,.43-.22.65-.5.49a1.35,1.35,0,0,1-.51-1.08C329.31,90.07,329.54,89.85,329.82,90Z"/><g class="cls-22"><path class="cls-4" d="M334.45,136.33l.12-.06.27-.16h0L335,136h0l.24-.14.48-.27.11-.06a.44.44,0,0,0,.15-.12.7.7,0,0,0,.13-.19,1.16,1.16,0,0,0,.1-.47V94.59l-1.44.83v40.16a1.2,1.2,0,0,1-.09.45.78.78,0,0,1-.16.24l-.06,0Z"/></g><path class="cls-6" d="M310.17,85a.12.12,0,0,1,0-.11l.65-.6h0a.1.1,0,0,1,.05.06.16.16,0,0,1,0,.09v.45a.33.33,0,0,1,0,.12.16.16,0,0,1,0,.07l-.34.31.34.71s0,.09,0,.12a.59.59,0,0,1,0,.14v.45a.09.09,0,0,1,0,.07h-.06l0,0-.65-1.34a.35.35,0,0,1,0-.17Z"/><path class="cls-6" d="M312.53,84.39a.22.22,0,0,1,.05-.08s.05,0,.1,0l.24.14a.1.1,0,0,1,.05.06.29.29,0,0,1,0,.09.06.06,0,0,1,0,0l-1.1,3.45a.18.18,0,0,1-.05.07.09.09,0,0,1-.1,0L311.5,88a.1.1,0,0,1-.05-.06.15.15,0,0,1,0-.09v0Z"/><path class="cls-6" d="M314.25,87.7a.17.17,0,0,1-.05.12l-.64.59s0,0,0,0h0a.18.18,0,0,1-.05-.07.15.15,0,0,1,0-.09V87.8a.38.38,0,0,1,0-.12.12.12,0,0,1,.05-.07l.34-.31-.34-.71a.51.51,0,0,1-.05-.12.57.57,0,0,1,0-.14v-.45a.08.08,0,0,1,0-.07,0,0,0,0,1,.05,0h0s0,0,0,0l.64,1.34a.37.37,0,0,1,.05.17Z"/><path class="cls-6" d="M316.05,89.47a.22.22,0,0,1,.06.07.23.23,0,0,1,0,.11v.5s0,.06,0,.08a0,0,0,0,1-.06,0l-.31-.17a.28.28,0,0,1-.06-.08.23.23,0,0,1,0-.11v-.49a.12.12,0,0,1,0-.09.06.06,0,0,1,.06,0Z"/><path class="cls-6" d="M317.07,90.06a.14.14,0,0,1,.06.07.26.26,0,0,1,0,.11v.5a.1.1,0,0,1,0,.08,0,0,0,0,1-.06,0l-.31-.17a.28.28,0,0,1-.06-.08.23.23,0,0,1,0-.11V90a.11.11,0,0,1,0-.08h.06Z"/><path class="cls-6" d="M318.09,90.64a.28.28,0,0,1,.06.08.26.26,0,0,1,0,.11v.5a.11.11,0,0,1,0,.08s0,0-.06,0l-.31-.17a.28.28,0,0,1-.06-.08.23.23,0,0,1,0-.11v-.5a.11.11,0,0,1,0-.08s0,0,.06,0Z"/><path class="cls-6" d="M310.44,88.93l14.95,8.64a.67.67,0,0,1,.32.53c0,.19-.14.26-.32.16l-14.95-8.63a.67.67,0,0,1-.32-.53C310.12,88.91,310.26,88.83,310.44,88.93Z"/><path class="cls-3" d="M315.24,100l14.95,8.64a.7.7,0,0,1,.32.53c0,.19-.15.26-.32.16l-14.95-8.63a.69.69,0,0,1-.32-.53C314.92,100,315.06,99.91,315.24,100Z"/><path class="cls-3" d="M315.24,105.55l7.15,4.14a.67.67,0,0,1,.32.53c0,.19-.14.26-.32.16l-7.15-4.13a.69.69,0,0,1-.32-.53C314.92,105.52,315.06,105.45,315.24,105.55Z"/><path class="cls-6" d="M326.63,98.28l6,3.43a.7.7,0,0,1,.32.53c0,.19-.15.26-.32.16l-6-3.42a.69.69,0,0,1-.32-.54C326.31,98.25,326.45,98.18,326.63,98.28Z"/><path class="cls-6" d="M310.44,119.4,325.39,128a.69.69,0,0,1,.32.53c0,.2-.14.27-.32.17l-14.95-8.64a.67.67,0,0,1-.32-.53C310.12,119.37,310.26,119.3,310.44,119.4Z"/><path class="cls-6" d="M326.63,128.75l6,3.43a.68.68,0,0,1,.32.53c0,.19-.15.26-.32.16l-6-3.43a.67.67,0,0,1-.32-.53C326.31,128.72,326.45,128.65,326.63,128.75Z"/><path class="cls-6" d="M326.63,120.45l6,3.43a.7.7,0,0,1,.32.53c0,.19-.15.27-.32.16l-6-3.42a.69.69,0,0,1-.32-.53C326.31,120.42,326.45,120.35,326.63,120.45Z"/><path class="cls-6" d="M326.63,123.22l6,3.43a.7.7,0,0,1,.32.53c0,.19-.15.26-.32.16l-6-3.42a.69.69,0,0,1-.32-.54C326.31,123.19,326.45,123.12,326.63,123.22Z"/><path class="cls-6" d="M321.55,117.51l3.35,1.94a.68.68,0,0,1,.32.53c0,.19-.15.26-.32.16l-3.35-1.93a.69.69,0,0,1-.32-.54C321.23,117.48,321.37,117.41,321.55,117.51Z"/><path class="cls-6" d="M310.44,91.71l8.72,5a.67.67,0,0,1,.32.53c0,.19-.14.27-.32.17l-8.72-5a.67.67,0,0,1-.32-.53C310.12,91.68,310.26,91.61,310.44,91.71Z"/><path class="cls-18" d="M310.44,91.71l8.72,5a.67.67,0,0,1,.32.53c0,.19-.14.27-.32.17l-8.72-5a.67.67,0,0,1-.32-.53C310.12,91.68,310.26,91.61,310.44,91.71Z"/><path class="cls-6" d="M310.44,94.48l3,1.7a.7.7,0,0,1,.32.53c0,.19-.15.27-.32.16l-3-1.7a.67.67,0,0,1-.32-.53C310.12,94.45,310.26,94.37,310.44,94.48Z"/><path class="cls-18" d="M310.44,94.48l3,1.7a.7.7,0,0,1,.32.53c0,.19-.15.27-.32.16l-3-1.7a.67.67,0,0,1-.32-.53C310.12,94.45,310.26,94.37,310.44,94.48Z"/><path class="cls-6" d="M310.44,97.25l3,1.7a.7.7,0,0,1,.32.53c0,.19-.15.27-.32.16l-3-1.7a.67.67,0,0,1-.32-.53C310.12,97.22,310.26,97.14,310.44,97.25Z"/><path class="cls-18" d="M310.44,97.25l3,1.7a.7.7,0,0,1,.32.53c0,.19-.15.27-.32.16l-3-1.7a.67.67,0,0,1-.32-.53C310.12,97.22,310.26,97.14,310.44,97.25Z"/><path class="cls-6" d="M310.44,100l3,1.7a.7.7,0,0,1,.32.53c0,.19-.15.27-.32.16l-3-1.7a.67.67,0,0,1-.32-.53C310.12,100,310.26,99.91,310.44,100Z"/><path class="cls-18" d="M310.44,100l3,1.71a.7.7,0,0,1,.32.53c0,.19-.15.26-.32.16l-3-1.7a.69.69,0,0,1-.32-.53C310.12,100,310.26,99.91,310.44,100Z"/><path class="cls-23" d="M315.24,102.78l8.72,5a.7.7,0,0,1,.32.53c0,.19-.15.26-.32.16l-8.72-5a.69.69,0,0,1-.32-.53C314.92,102.75,315.06,102.68,315.24,102.78Z"/><path class="cls-23" d="M325.2,108.53l3.79,2.2a.67.67,0,0,1,.32.53c0,.19-.14.26-.32.16l-3.79-2.2a.67.67,0,0,1-.32-.53C324.88,108.5,325,108.43,325.2,108.53Z"/><path class="cls-18" d="M315.24,102.78l8.72,5a.7.7,0,0,1,.32.53c0,.19-.15.26-.32.16l-8.72-5a.69.69,0,0,1-.32-.53C314.92,102.75,315.06,102.68,315.24,102.78Z"/><path class="cls-18" d="M325.2,108.53l3.79,2.2a.67.67,0,0,1,.32.53c0,.19-.14.26-.32.16l-3.79-2.2a.67.67,0,0,1-.32-.53C324.88,108.5,325,108.43,325.2,108.53Z"/><path class="cls-6" d="M310.44,102.78l3,1.71a.7.7,0,0,1,.32.53c0,.19-.15.27-.32.16l-3-1.7a.67.67,0,0,1-.32-.53C310.12,102.76,310.26,102.68,310.44,102.78Z"/><path class="cls-18" d="M310.44,102.78l3,1.71a.7.7,0,0,1,.32.53c0,.19-.15.27-.32.16l-3-1.7a.67.67,0,0,1-.32-.53C310.12,102.76,310.26,102.68,310.44,102.78Z"/><path class="cls-6" d="M320.4,97.46l3.79,2.19a.69.69,0,0,1,.32.54c0,.19-.14.26-.32.16l-3.79-2.2a.67.67,0,0,1-.32-.53C320.08,97.43,320.22,97.36,320.4,97.46Z"/><path class="cls-18" d="M320.4,97.46l3.79,2.19a.69.69,0,0,1,.32.54c0,.19-.14.26-.32.16l-3.79-2.2a.67.67,0,0,1-.32-.53C320.08,97.43,320.22,97.36,320.4,97.46Z"/><path class="cls-14" d="M318.83,110.4l8.73,5a.7.7,0,0,1,.32.53c0,.19-.15.26-.32.16l-8.73-5a.7.7,0,0,1-.32-.53C318.51,110.37,318.66,110.3,318.83,110.4Z"/><path class="cls-14" d="M323.87,116.08l8.72,5a.72.72,0,0,1,.32.54c0,.19-.15.26-.32.16l-8.72-5a.69.69,0,0,1-.32-.54C323.55,116.05,323.69,116,323.87,116.08Z"/><path class="cls-14" d="M328.79,116.14l3.8,2.2a.7.7,0,0,1,.32.53c0,.19-.15.27-.32.16l-3.8-2.19a.72.72,0,0,1-.32-.53C328.47,116.11,328.62,116,328.79,116.14Z"/><path class="cls-3" d="M328.79,127.11l3.8,2.2a.7.7,0,0,1,.32.53c0,.19-.15.27-.32.16l-3.8-2.19a.72.72,0,0,1-.32-.53C328.47,127.08,328.62,127,328.79,127.11Z"/><path class="cls-6" d="M315.24,97.25l8.72,5a.7.7,0,0,1,.32.53c0,.19-.15.26-.32.16l-8.72-5a.67.67,0,0,1-.32-.53C314.92,97.22,315.06,97.14,315.24,97.25Z"/><path class="cls-18" d="M315.24,97.25l8.72,5a.7.7,0,0,1,.32.53c0,.19-.15.26-.32.16l-8.72-5a.67.67,0,0,1-.32-.53C314.92,97.22,315.06,97.14,315.24,97.25Z"/><path class="cls-6" d="M325.2,103l3.79,2.2a.67.67,0,0,1,.32.53c0,.19-.14.26-.32.16l-3.79-2.2a.66.66,0,0,1-.32-.53C324.88,103,325,102.89,325.2,103Z"/><path class="cls-18" d="M325.2,103l3.79,2.2a.67.67,0,0,1,.32.53c0,.19-.14.26-.32.16l-3.79-2.2a.66.66,0,0,1-.32-.53C324.88,103,325,102.89,325.2,103Z"/></g><g id="Mouse"><path class="cls-10" d="M265.75,134.72l5.34,3.09a5.9,5.9,0,0,0,5.9-.31l8.82-6.44a2.12,2.12,0,0,0-.2-3.84l-2.68-1.55a7.28,7.28,0,0,0-6.2-.19l-10.88,5.9C264.11,132.26,264.06,133.75,265.75,134.72Z"/><path class="cls-4" d="M286,128.26,279.85,133l-4.5,3.53a4,4,0,0,1-1.43.34,3.92,3.92,0,0,1-2.14-.45L267,133.69h0a3.39,3.39,0,0,1-1-4.84,1.43,1.43,0,0,1,.14-.2,6.37,6.37,0,0,1,3.85-2.44l2.42-.48c3.92-.8,7.14-1.19,7.52-.93l6,3.47Z"/><path class="cls-6" d="M282.55,130.93l.34-.27-5.38-3.1,4.71-1.46-.48-.27L277,127.28l-3.21-1.85-.6.12Z"/><path class="cls-11" d="M275.88,136.27l0,0h0l4.28-3.09L286,129v-.66a.06.06,0,0,0,0-.05h0c-.43-.15-2.94.61-6,1.81l-2,.8a6.18,6.18,0,0,0-1.72,1,6.39,6.39,0,0,0-2.31,4.93v.1a4,4,0,0,0,1.43-.34Z"/></g></g><g id="Pot"><path class="cls-6" d="M286.5,221.84c-5.89-6.07-9.35-30.79-3.61-35.6h29.22c5.73,4.81,2.28,29.52-3.6,35.6l-.16.17-.21.2a6.11,6.11,0,0,1-.53.47l-.14.12-.44.34c-.25.18-.51.34-.76.49-4.84,2.82-12.69,2.82-17.54,0h0a9,9,0,0,1-.76-.5c-.15-.1-.28-.21-.42-.31l-.17-.14c-.18-.15-.35-.31-.51-.46l-.24-.24Z"/><g class="cls-16"><path class="cls-14" d="M286.5,221.84c-5.89-6.07-9.35-30.79-3.61-35.6h29.22c5.73,4.81,2.28,29.52-3.6,35.6l-.16.17-.21.2a6.11,6.11,0,0,1-.53.47l-.14.12-.44.34c-.25.18-.51.34-.76.49-4.84,2.82-12.69,2.82-17.54,0h0a9,9,0,0,1-.76-.5c-.15-.1-.28-.21-.42-.31l-.17-.14c-.18-.15-.35-.31-.51-.46l-.24-.24Z"/></g><path class="cls-6" d="M309.57,184.3c6.66,3.89,6.66,10.2,0,14.09s-17.47,3.89-24.14,0-6.66-10.2,0-14.09S302.9,180.41,309.57,184.3Z"/><g class="cls-24"><path class="cls-14" d="M309.57,184.3c6.66,3.89,6.66,10.2,0,14.09s-17.47,3.89-24.14,0-6.66-10.2,0-14.09S302.9,180.41,309.57,184.3Z"/></g><path class="cls-6" d="M306.36,186.17c4.9,2.86,4.9,7.49,0,10.35s-12.83,2.85-17.72,0-4.9-7.49,0-10.35S301.47,183.31,306.36,186.17Z"/><g class="cls-25"><path d="M306.36,186.17c4.9,2.86,4.9,7.49,0,10.35s-12.83,2.85-17.72,0-4.9-7.49,0-10.35S301.47,183.31,306.36,186.17Z"/></g><path class="cls-2" d="M288.64,191.08c4.89-2.86,12.83-2.86,17.72,0a8.1,8.1,0,0,1,2.93,2.72,8.19,8.19,0,0,1-2.93,2.72c-4.89,2.85-12.83,2.85-17.72,0a8.19,8.19,0,0,1-2.93-2.72A8.1,8.1,0,0,1,288.64,191.08Z"/><g id="Plants"><path class="cls-6" d="M295.11,178.61a8.41,8.41,0,0,1-.75-2.13,5.07,5.07,0,0,1,1.56-4.92c.57-.44,1.32-.76,1.56-1.44a2.21,2.21,0,0,0,0-1.17c-.27-1.52-.78-3.08-.36-4.57a5.09,5.09,0,0,1,2.83-3,15,15,0,0,1,4.13-1.08,6.76,6.76,0,0,0,2.18-.63c.82-.46,1.07-1.26,1.58-2a14,14,0,0,1,2-2.14,7.85,7.85,0,0,1,5.41-2.33c4.3.19,4.18,3.89,2.94,6.69s-1.57,3.71,1.11,6.63,2.69,6.52-.51,8.54-5.29,2.28-4,6.16c1.13,3.46,1.84,6.42-1.37,10.12a10.42,10.42,0,0,1-8.43,4,13.88,13.88,0,0,1-4.14-1c-1-.48-.32-1.24-.65-2.2l-2.12-6.2a45.33,45.33,0,0,0-1.69-4.88C296,180.2,295.51,179.42,295.11,178.61Z"/><g class="cls-26"><path d="M295.11,178.61a8.41,8.41,0,0,1-.75-2.13,5.07,5.07,0,0,1,1.56-4.92c.57-.44,1.32-.76,1.56-1.44a2.21,2.21,0,0,0,0-1.17c-.27-1.52-.78-3.08-.36-4.57a5.09,5.09,0,0,1,2.83-3,15,15,0,0,1,4.13-1.08,6.76,6.76,0,0,0,2.18-.63c.82-.46,1.07-1.26,1.58-2a14,14,0,0,1,2-2.14,7.85,7.85,0,0,1,5.41-2.33c4.3.19,4.18,3.89,2.94,6.69s-1.57,3.71,1.11,6.63,2.69,6.52-.51,8.54-5.29,2.28-4,6.16c1.13,3.46,1.84,6.42-1.37,10.12a10.42,10.42,0,0,1-8.43,4,13.88,13.88,0,0,1-4.14-1c-1-.48-.32-1.24-.65-2.2l-2.12-6.2a45.33,45.33,0,0,0-1.69-4.88C296,180.2,295.51,179.42,295.11,178.61Z"/></g><path class="cls-14" d="M301,194.32a.34.34,0,0,0,.21-.31c-.18-21.22,11.52-33.89,11.63-34a.32.32,0,0,0,0-.45.31.31,0,0,0-.44,0c-.12.13-12,13-11.81,34.47a.31.31,0,0,0,.32.31Z"/><path class="cls-14" d="M304.35,174.58l.07,0c3.8-2.39,10.6-4.18,10.66-4.2a.32.32,0,0,0,.23-.39.31.31,0,0,0-.39-.22c-.28.07-6.95,1.83-10.84,4.27a.32.32,0,0,0-.1.44A.33.33,0,0,0,304.35,174.58Z"/><path class="cls-14" d="M305.53,171.67h0a.33.33,0,0,0,.17-.42,24.15,24.15,0,0,0-3.51-5.9.32.32,0,1,0-.48.41,24.49,24.49,0,0,1,3.4,5.73A.33.33,0,0,0,305.53,171.67Z"/><path class="cls-6" d="M298,196.61a17.81,17.81,0,0,1-9.32.35c-5.35-1.16-8.62-6.15-8.62-6.15s5.79-2.32,9.16-2.54a30,30,0,0,0-10.13.21s-3.09-1.15-2.51-6.37c0,0,2.91-2.15,9.62-1.31a21.45,21.45,0,0,0-9.25-3.11c-.46,0,.16-6.8.72-9.83s1.68-2.57,4.09-2.31,9.53,1.89,10.43,3.63,0,6.21,0,6.21a10.21,10.21,0,0,0,2-5.83,15.86,15.86,0,0,1,4.11,2.24,9.55,9.55,0,0,1,2.56,3.21,19.39,19.39,0,0,1-3,8.07,10.88,10.88,0,0,0,4.36-6.52,14.77,14.77,0,0,1,2.81,8.31A12.5,12.5,0,0,1,298,196.61Z"/><path class="cls-27" d="M298,196.61a17.81,17.81,0,0,1-9.32.35c-5.35-1.16-8.62-6.15-8.62-6.15s5.79-2.32,9.16-2.54a30,30,0,0,0-10.13.21s-3.09-1.15-2.51-6.37c0,0,2.91-2.15,9.62-1.31a21.45,21.45,0,0,0-9.25-3.11c-.46,0,.16-6.8.72-9.83s1.68-2.57,4.09-2.31,9.53,1.89,10.43,3.63,0,6.21,0,6.21a10.21,10.21,0,0,0,2-5.83,15.86,15.86,0,0,1,4.11,2.24,9.55,9.55,0,0,1,2.56,3.21,19.39,19.39,0,0,1-3,8.07,10.88,10.88,0,0,0,4.36-6.52,14.77,14.77,0,0,1,2.81,8.31A12.5,12.5,0,0,1,298,196.61Z"/><path class="cls-14" d="M298.67,196.14a.31.31,0,0,1-.19-.26c-.81-10.13-12.14-25.95-17.15-29.13a.31.31,0,0,1,.33-.52c5.09,3.23,16.6,19.31,17.43,29.6a.31.31,0,0,1-.28.33A.34.34,0,0,1,298.67,196.14Z"/></g></g><g id="Character"><path class="cls-28" d="M196.2,189.81c0-.12-1.82-6.69-1.82-6.69s.59.6,4.4-.4a21.68,21.68,0,0,0,4.13-1.73l1.09,4.8c1,1.85,4.36,1,8,.58.62-.07,1.26-.17,1.89-.28h0c2-.11,4,1.09,1.91,2.78s-5.47,2.34-8.6,2.9C203.5,192.45,196.88,193.55,196.2,189.81Z"/><path class="cls-11" d="M222.6,189.23a3.86,3.86,0,0,1,.28,2c-.08.73-1.89,3.21-5.09,4.73s-7.15,1.63-9,2.16-3.55,1.6-5.73,2.13-4.34.81-6.53-.63a4.91,4.91,0,0,1-.72-2.2C196.15,197.07,222.6,189.23,222.6,189.23Z"/><path class="cls-6" d="M204.57,186.43c1.41,1,4.32.3,7.47-.06,3-.34,6.31-1.38,8.33-.68s3.71,3.08,1,6.12a11.89,11.89,0,0,1-3.79,2.91c-3.39,1.21-6.44,1.31-8.62,1.85-2.83.7-4.38,2-7,2.26-3.39.39-5.54-.48-6.13-1.39s-1.13-8.21.32-8.06c0,0,.62,2.36,6.16.07C204.71,188.44,204.67,187,204.57,186.43Z"/><path class="cls-9" d="M204.57,186.43c1.41,1,4.32.3,7.47-.06,3-.34,6.31-1.38,8.33-.68s3.71,3.08,1,6.12a11.89,11.89,0,0,1-3.79,2.91c-3.39,1.21-6.44,1.31-8.62,1.85-2.83.7-4.38,2-7,2.26-3.39.39-5.54-.48-6.13-1.39s-1.13-8.21.32-8.06c0,0,.62,2.36,6.16.07C204.71,188.44,204.67,187,204.57,186.43Z"/><path class="cls-29" d="M214,190.36s-.32-3.09-2.6-3.91a1.19,1.19,0,0,0-1.26.17s2.12.3,2.81,3.93c0,0,.11.23.57.15C213.67,190.67,214,190.61,214,190.36Z"/><path class="cls-29" d="M208.18,186.86s0-.11.54-.21a.94.94,0,0,1,.62.07s1.71.74,2,4a.58.58,0,0,1-.53.49.47.47,0,0,1-.61-.31S209.88,187.47,208.18,186.86Z"/><path class="cls-29" d="M206.36,186.92s.09-.19.49-.19.62.2.62.2a5.8,5.8,0,0,1,1.23,3.94s.05.46-.59.5-.54-.47-.54-.47S207.35,187.47,206.36,186.92Z"/><path class="cls-4" d="M193.85,145.1c2.78,8.35,10.15,37.12,10.15,37.12s-4.79,4.31-10,2.35l-12.4-35.83Z"/><path class="cls-28" d="M215.28,199.1c-.56-.85-2.7-6.7-2.7-6.7s2.23,1.27,6.06.36a8.92,8.92,0,0,0,3.76-2.57l1.63,5.62c1,1.88,4.09,1.26,7.78.93.62-.06,1.26-.14,1.9-.24h0c2-.06,4,1.18,1.85,2.82s-5.53,2.2-8.68,2.69C223.12,202.6,217.41,202.25,215.28,199.1Z"/><path class="cls-11" d="M243.88,198.92a4.09,4.09,0,0,1,.24,2.17c-.09.79-2.1,3.41-5.58,5s-7.72,1.55-9.73,2.08-3.85,1.62-6.21,2.13-4.68.76-7-.85a5.21,5.21,0,0,1-.72-2.37C215.28,206.64,243.88,198.92,243.88,198.92Z"/><path class="cls-6" d="M224.64,195.39a5,5,0,0,0,.69.43,2.05,2.05,0,0,0,.78.16A11.44,11.44,0,0,0,228,196c1.56-.08,3.11-.31,4.66-.45,3.2-.29,6.81-1.32,9-.52s4.11,3.39,1.1,6.59a14.59,14.59,0,0,1-4,3.06c-3.57,1.49-7.27,1.21-9.62,1.73-3.07.68-4.77,2-7.59,2.25-3.66.33-5.94-.66-6.55-1.65-.34-.56,0-3.42-.42-5.65-.39-1.92-.29-3.22.4-3.13a3.4,3.4,0,0,0,.53.67,2.56,2.56,0,0,0,.81.65,6.78,6.78,0,0,0,1.38.46,8.12,8.12,0,0,0,2.54.35,1.32,1.32,0,0,0,.7-.22,1.5,1.5,0,0,0,.4-.87l.18-.84a1.14,1.14,0,0,1,.15-.45,1.24,1.24,0,0,1,.44-.34,3.85,3.85,0,0,0,1.39-1.06,3.35,3.35,0,0,0,.41-1.31.34.34,0,0,1,.09-.22c.1-.08.25,0,.37.06Z"/><path class="cls-9" d="M224.64,195.39a5,5,0,0,0,.69.43,2.05,2.05,0,0,0,.78.16A11.44,11.44,0,0,0,228,196c1.56-.08,3.11-.31,4.66-.45,3.2-.29,6.81-1.32,9-.52s4.11,3.39,1.1,6.59a14.59,14.59,0,0,1-4,3.06c-3.57,1.49-7.27,1.21-9.62,1.73-3.07.68-4.77,2-7.59,2.25-3.66.33-5.94-.66-6.55-1.65-.34-.56,0-3.42-.42-5.65-.39-1.92-.29-3.22.4-3.13a3.4,3.4,0,0,0,.53.67,2.56,2.56,0,0,0,.81.65,6.78,6.78,0,0,0,1.38.46,8.12,8.12,0,0,0,2.54.35,1.32,1.32,0,0,0,.7-.22,1.5,1.5,0,0,0,.4-.87l.18-.84a1.14,1.14,0,0,1,.15-.45,1.24,1.24,0,0,1,.44-.34,3.85,3.85,0,0,0,1.39-1.06,3.35,3.35,0,0,0,.41-1.31.34.34,0,0,1,.09-.22c.1-.08.25,0,.37.06Z"/><path class="cls-29" d="M234.6,199.91s-.26-3.33-2.68-4.27a1.29,1.29,0,0,0-1.36.15s2.27.39,2.92,4.29c0,0,.11.26.6.18C234.25,200.24,234.62,200.18,234.6,199.91Z"/><path class="cls-29" d="M228.47,196s0-.11.58-.21a1,1,0,0,1,.67.09s1.8.84,2.06,4.31c0,0,0,.42-.58.52a.5.5,0,0,1-.64-.35S230.27,196.7,228.47,196Z"/><path class="cls-29" d="M226.5,196s.11-.21.54-.19.66.22.66.22a6.28,6.28,0,0,1,1.21,4.27s.05.49-.64.52-.57-.52-.57-.52S227.56,196.63,226.5,196Z"/><path class="cls-5" d="M213.41,155c2.19,6.74,7.78,25.9,10.34,35.76,0,0-4.59,4.12-10.49,3.76L199,157.58l5.67-3.5Z"/><path class="cls-5" d="M166.56,247.09a.92.92,0,0,0,.92-.92V186.85a.92.92,0,0,0-1.84,0v59.32A.92.92,0,0,0,166.56,247.09Z"/><path class="cls-5" d="M129.86,225.5a.93.93,0,0,0,.86-.58l18.19-46a.93.93,0,0,0-.52-1.2.92.92,0,0,0-1.2.52l-18.19,46a.91.91,0,0,0,.52,1.19A.83.83,0,0,0,129.86,225.5Z"/><path class="cls-5" d="M132,220a.92.92,0,0,0,.67-.29l33.85-35.82,33.79,35.67a.91.91,0,0,0,1.3,0,.92.92,0,0,0,0-1.3l-34.46-36.37a.9.9,0,0,0-.67-.29h0a.9.9,0,0,0-.67.29l-34.52,36.52a.93.93,0,0,0,0,1.31A.92.92,0,0,0,132,220Z"/><path class="cls-5" d="M203.26,225.5a.83.83,0,0,0,.34-.07.91.91,0,0,0,.52-1.19l-18.19-46a.92.92,0,0,0-1.2-.52.93.93,0,0,0-.52,1.2l18.19,46A.93.93,0,0,0,203.26,225.5Z"/><path class="cls-6" d="M203.71,166.51c.66-3.73-2.37-6.63-8.08-10.48a134,134,0,0,0-16.52-9.28c-4.77-2.19-9.65-2-15.76,1.15-8.49,4.36-34,19.85-34,19.85s38.18,21.55,45.53,20.58,25.71-12.9,27.16-17.11S203.71,166.51,203.71,166.51Z"/><g class="cls-30"><path d="M203.71,166.51c.66-3.73-2.37-6.63-8.08-10.48a134,134,0,0,0-16.52-9.28c-4.77-2.19-9.65-2-15.76,1.15-8.49,4.36-34,19.85-34,19.85s38.18,21.55,45.53,20.58,25.71-12.9,27.16-17.11S203.71,166.51,203.71,166.51Z"/></g><path class="cls-6" d="M171.16,183.8c5.48,5,11.21.69,20.28-5.19,10.25-6.66,12.27-12.1,12.27-12.1s0,4.08-.77,6-2.42,4.08-9.82,9.18-12.75,7.66-17.73,8.6l-3.92-.54"/><path class="cls-8" d="M191.44,178.61c10.25-6.66,12.27-12.1,12.27-12.1s0,4.08-.77,6-2.42,4.08-9.82,9.18-12.75,7.66-17.73,8.6l-3.92-.54-.31-5.94C176.64,188.76,182.37,184.49,191.44,178.61Z"/><path class="cls-6" d="M131.29,218.27l-2.81,6.48a.51.51,0,0,0,0,.17.49.49,0,0,0,0,.12.76.76,0,0,0,.36.43,1.67,1.67,0,0,0,1.52.08.69.69,0,0,0,.31-.3h0l0-.09,2.61-6.08Z"/><path class="cls-6" d="M202,218.55l2.4,6.34a.5.5,0,0,1,0,.17.2.2,0,0,1,0,.11.71.71,0,0,1-.36.4,1.57,1.57,0,0,1-1.46,0,.69.69,0,0,1-.29-.3h0l0-.09-2.23-5.94Z"/><path class="cls-6" d="M165.5,241.58v5.25a.53.53,0,0,0,.31.43,1.65,1.65,0,0,0,1.5,0,.53.53,0,0,0,.31-.43v-5.25A2.22,2.22,0,0,0,165.5,241.58Z"/><path class="cls-4" d="M144.62,144.26c2.17,2.53,22-3.16,27.2-3.87,8.46-1.15,15.34-2,18.21-1.09s4.09,2.36,5,5.8c1,4.05,1.57,6.12,1.57,6.12s-14,5.39-25.12,6.69S144.62,144.26,144.62,144.26Z"/><path class="cls-5" d="M140.92,148c-2.19,8.35-4.16,18.08.92,23.4,3.42,3.58,20.59,12.89,31.67,9.23,10.92-3.62,33.52-20.4,35.79-22.09s4.33-2.84,4.11-3.56c-3-10.12-7.5-10.91-15.76-9.09-10.1,2.22-32.28,11.27-32.28,11.27Z"/><polygon class="cls-28" points="191.11 94.24 183.49 102.85 171.18 97.01 179.79 85.11 191.11 94.24"/><path class="cls-31" d="M200.57,77.87s3.12,4.5,2.78,5-2.54.92-2.54.92Z"/><circle class="cls-32" cx="200.54" cy="77.11" r="3.39"/><path class="cls-28" d="M191.91,65.4c6.13,1.15,8,3.79,8.75,13.47.83,10.12-.13,13.32-1.43,14.72-.88.94-5.87,1.22-8.4.58C187.66,93.38,180.48,91,177,86c-4.06-5.91-5.28-14-1.16-17.43C181.68,63.74,189.41,64.94,191.91,65.4Z"/><path class="cls-31" d="M191.11,94.24c2.64.59,6.65.23,7.84-.45a9,9,0,0,1-4.43-.16,14.54,14.54,0,0,1-4.07-1.8Z"/><path class="cls-11" d="M201.79,69.36l0,0a13.9,13.9,0,0,1-5.85,2,12.07,12.07,0,0,1-.86,4.83c-.36,1.09-1.63,4.5-3,2.62-1-1.35-1.92-2.58-3.84-2.25-3.16.55-3.5,4.61-1.44,7s3.9,1.43,3.9,1.43.29,4.36-2,7.45a10.36,10.36,0,0,1-8.25.52c-3-1-7.43-4.84-9.05-7.83-4.45-8.24-4.47-16.13.92-18.56.5-3.95,3.56-5.78,7.08-6.68,4.87-1.23,9.93,1.82,14.63-.19,1-.43,1.91-1,2.92-1.4a2,2,0,0,1,1.76,0,2.11,2.11,0,0,1,.74,1.34,3.73,3.73,0,0,1-.18,2.81,8.41,8.41,0,0,1,2.21-.82,2.81,2.81,0,0,1,2.24.51,2.88,2.88,0,0,1,.9,1.95A6,6,0,0,1,201.79,69.36Z"/><path class="cls-11" d="M172.21,67.92l-3.7-2.07a2.12,2.12,0,1,1,3.7,2.07Z"/><line class="cls-33" x1="192.04" y1="78.82" x2="203.89" y2="76.61"/><path class="cls-28" d="M216.83,99.27c-.32-.53-1-.64-1.62-.84-1.09-.38-1.94-1.25-3-1.73a5.93,5.93,0,0,0-3.77-.26,10.9,10.9,0,0,0-1.26.41A15.94,15.94,0,0,0,204.93,98c-3,1.78-5.26,5.8-8.21,7.64-1.1.69-2.13,1.31-3.14,1.93l7,6.29a42.15,42.15,0,0,1,3.48-2.65c1.74-1,3.49-1,5.44-1.34a26.31,26.31,0,0,0,4-1,1.73,1.73,0,0,0,1.17-.77,1.18,1.18,0,0,0-.76-1.45,10,10,0,0,0-2.06-.28c-.51-.08-1.87.22-2.17-.29-.16-.27,0-.6.23-.85,1.23-1.52,2.77-3.16,4.73-3.61a4.13,4.13,0,0,0,1.72-.69A1.35,1.35,0,0,0,216.83,99.27Z"/><path class="cls-6" d="M174.63,92.24c-7.49-4.09-14.31-1.47-16.77,3.79-2.22,4.76-6.9,23.17-6.9,23.17C153.21,123.41,174.63,92.24,174.63,92.24Z"/><path class="cls-6" d="M173.51,93.72l1.12-1.48c-8.45-4-16,1.26-22.7,11.63-7.19,11.19-11,27.24-11,44.19,0,0,1.44,7.62,11.06,11.43,10.21,4,24.45,2.32,28.89-8.26,0,0,.09-10.57,3.3-15.77,2.08-3.37,6.93-10.85,10.54-16.22,3.14-4.67,5.58-15.31-1-19.2a55,55,0,0,0-5.33-2.72C182.44,99.29,172.74,96.09,173.51,93.72Z"/><path class="cls-34" d="M173.54,93.75l1.09-1.51c-8.45-4-16,1.26-22.7,11.63-7.19,11.19-11,27.24-11,44.19,0,0,1.44,7.62,11.06,11.43,10.21,4,24.45,2.32,28.89-8.26,0,0,.09-10.57,3.3-15.77,2.08-3.37,6.93-10.85,10.54-16.22,3.14-4.67,5.58-15.31-1-19.2a55,55,0,0,0-5.33-2.72C182.44,99.29,172.77,96.12,173.54,93.75Z"/><path class="cls-35" d="M197.45,112.46a17.11,17.11,0,0,0,.27-6.16h0a33.17,33.17,0,0,1-6.39,9.76c-3.44,3.62-7.69,6.45-10.89,10.29-3.38,4.07-5.81,9-8.64,13.45-1.14,1.78-2.69,5.23-4.8,5.37-2.58.16-5-3-6.44-5.14-2.24-3.45-4.17-7.76-6.95-10.79-2.43-2.65-6.2-6-9.51-4.51h0c-.25.88-.48,1.77-.7,2.67s-.43,1.82-.62,2.74l0,.1c-.19.93-.37,1.85-.53,2.78a.59.59,0,0,0,0,.14c-.16.92-.3,1.84-.43,2.76a90,90,0,0,0-.85,12.14s1.44,7.62,11.06,11.43c10.21,4,24.45,2.32,28.89-8.26,0,0,.09-10.57,3.3-15.77.33-.52.72-1.16,1.16-1.85h0l.07-.12,1.2-1.88.08-.12,0,0,3-4.66.49-.74c1-1.58,2.08-3.17,3.08-4.68h0l1-1.48.41-.62h0a5.37,5.37,0,0,0,.34-.53l.1-.17q.12-.19.24-.42c0-.06.07-.12.1-.19s.17-.33.26-.5l.06-.13c.11-.22.21-.45.31-.68v0l0,0,.27-.64.06-.16c.07-.21.15-.42.23-.63v0l0-.07c.13-.4.26-.8.37-1.22h0c.12-.42.22-.84.31-1.26h0Z"/><path class="cls-28" d="M236.7,122.76a17.68,17.68,0,0,1-1.76,1.81c-2.59,2.34-5.61,3.47-9.13,5.75-2.84,1.85-7.22,4.53-10.91,6.83a55.51,55.51,0,0,1-11.88,5.5c-3.43,1-5.35,1-7.38-4.45-1-2.69-1.78-5.46-2.64-8.2q-1.92-6.12-3.77-12.25s-4.56-11.25,5.64-16.9c4.44,2.54,6.14,3.57,7.53,8.89,1.66,6.37,4.36,18.93,4.36,18.93a88.15,88.15,0,0,0,10.55-4.49c1.3-.64,2.89-1.09,3.81-2.24a17.14,17.14,0,0,0,1.62-2.52c.44-.79.75-1.64,1.23-2.39a21,21,0,0,1,3.36-3.69,1.35,1.35,0,0,1,.81-.48.91.91,0,0,1,.82.5c.38.65,0,1.3-.17,2s-.43,1.52-.65,2.29a20.11,20.11,0,0,0,6.51-6.11,3.18,3.18,0,0,1,.51-.65,1,1,0,0,1,.76-.27c.68.08,1.36,1.18,1.39,1.81a9.55,9.55,0,0,0,.05,1.93c.15.59.55,1.07.74,1.65a9.73,9.73,0,0,1,.39,1.84,6.29,6.29,0,0,1-1,3.85A10,10,0,0,1,236.7,122.76Z"/><path class="cls-6" d="M194.26,100.38c3.89,1.57,6.69,3.35,8.47,9.28s3.69,15.45,3.69,15.45,0,2-4.68,4.77a11.59,11.59,0,0,1-9.14,1.23L189,119.66S182.72,104.34,194.26,100.38Z"/><path class="cls-6" d="M171.47,189.74c-3.12-.16-5.57-2.45-13-5.54-13.7-5.71-24-10.28-27.89-17.45s-6.69-27.9-5.71-36.87a12,12,0,0,1,.67-3l-1-.14,2.5-2.12h0c2.56-2.09,6.73-.22,9.87,1.49,9,4.88,16,9.62,21.53,26.75,4.17,12.88,6.92,24.64,12.68,30.92"/><path class="cls-36" d="M125.55,126.9l-1-.14,2.5-2.12h0c2.56-2.09,6.73-.22,9.87,1.49,9,4.88,16,9.62,21.53,26.75,4.17,12.88,6.92,24.64,12.68,30.92l.31,5.94c-3.12-.16-5.57-2.45-13-5.54-13.7-5.71-24-10.28-27.89-17.45s-6.69-27.9-5.71-36.87A12,12,0,0,1,125.55,126.9Z"/><path class="cls-6" d="M134.35,128.33c9,4.88,16,9.63,21.53,26.76s8.58,32.26,19.51,35.19c0,0-4.94,2-20.08-4.44-4.82-2-10.67-5.75-14.51-7.91-7.53-4.22-12.09-7.68-12.81-9-4-7.14-6.69-27.89-5.71-36.87S129.86,125.89,134.35,128.33Z"/></g><g id="Speech_Bubble" data-name="Speech Bubble"><path class="cls-6" d="M184.77,52.37l-2.48-4.66,2-5.76V38.43L178.19,42v3.52L180.81,50a.4.4,0,0,0,.18.16h0Z"/><path class="cls-37" d="M184.77,52.37l-2.48-4.66,2-5.76V38.43L178.19,42v3.52L180.81,50a.4.4,0,0,0,.18.16h0Z"/><path class="cls-6" d="M199.34,10.43a4,4,0,0,0-1.83-3.17L196,6.4a4.07,4.07,0,0,0-3.66,0L169.52,19.61a4,4,0,0,0-1.83,3.17V47.91a4.05,4.05,0,0,0,1.83,3.17l1.49.86a4.07,4.07,0,0,0,3.66,0L182,47.69l2.61,4.54a.39.39,0,0,0,.71-.07l2.77-8,9.4-5.44a4.05,4.05,0,0,0,1.83-3.17Z"/><path class="cls-37" d="M167.69,47.91a4.05,4.05,0,0,0,1.83,3.17l1.49.86a4.11,4.11,0,0,0,3.35.15c-.86.32-1.52-.16-1.52-1.21V25.75a3.75,3.75,0,0,1,.54-1.8l-5.15-3a3.71,3.71,0,0,0-.54,1.8Z"/><path class="cls-15" d="M199.28,9.91c-.21-.78-.92-1-1.77-.54L174.67,22.58A3.64,3.64,0,0,0,173.38,24l-5.15-3a3.8,3.8,0,0,1,1.29-1.37L192.36,6.4a4.07,4.07,0,0,1,3.66,0l1.49.86A4,4,0,0,1,199.28,9.91Z"/><g id="_" data-name="&lt;/&gt;"><path class="cls-14" d="M176.2,35.62a1.31,1.31,0,0,1,.09-.52,2.73,2.73,0,0,1,.27-.49l5-8,.08-.1,0,0c.08,0,.14,0,.19,0a.33.33,0,0,1,.07.24v3.1a1.3,1.3,0,0,1-.14.65l-.25.42L179,34.77l2.56,1.17.25.12c.1.06.14.22.14.48v2.2a.78.78,0,0,1-.07.33.46.46,0,0,1-.19.22l0,0h-.08l-5-2.29a.5.5,0,0,1-.36-.6Z"/><path class="cls-14" d="M187,23.22a2.51,2.51,0,0,1,.18-.5.85.85,0,0,1,.36-.39l1.67-1a.14.14,0,0,1,.19,0,.34.34,0,0,1,.08.25.81.81,0,0,1,0,.19L185.29,39.7a2.2,2.2,0,0,1-.18.48.82.82,0,0,1-.37.41l-1.63.94a.15.15,0,0,1-.19,0,.37.37,0,0,1-.08-.25.74.74,0,0,1,0-.19Z"/><path class="cls-14" d="M196.15,26.11a1.35,1.35,0,0,1-.09.52,3.55,3.55,0,0,1-.27.49l-5,8-.08.09-.05,0c-.08,0-.14,0-.19,0a.34.34,0,0,1-.07-.25V31.94a1.24,1.24,0,0,1,.14-.64,3.93,3.93,0,0,1,.25-.41L193,27.53l-2.18-.83a.75.75,0,0,1-.25-.13c-.1-.07-.14-.23-.14-.48V23a.78.78,0,0,1,.07-.33.46.46,0,0,1,.19-.22l.05,0a.11.11,0,0,1,.08,0l5,2.29a.8.8,0,0,1,.27.18.68.68,0,0,1,.09.42Z"/></g></g><g id="Text_Box" data-name="Text Box"><g id="_2" data-name="{}"><g id="Speech_Bubble-2" data-name="Speech Bubble"><g id="Speach_Bubble" data-name="Speach Bubble"><path class="cls-11" d="M129.85,7.28,99.28,24.89a1.67,1.67,0,0,0-.76,1.31V43.26a1.64,1.64,0,0,0,.77,1.31l3,1.71a1.69,1.69,0,0,0,1.52,0l30.57-17.61a1.67,1.67,0,0,0,.76-1.31V10.3A1.67,1.67,0,0,0,134.38,9l-3-1.71A1.69,1.69,0,0,0,129.85,7.28Z"/><path class="cls-5" d="M135.14,10.16c-.06-.38-.38-.52-.75-.3L103.83,27.47a1.46,1.46,0,0,0-.54.56l-4.53-2.6a1.5,1.5,0,0,1,.52-.54L129.85,7.28a1.73,1.73,0,0,1,1.52,0l3,1.72A1.72,1.72,0,0,1,135.14,10.16Z"/><path class="cls-4" d="M134.39,9.86,103.82,27.47a1.66,1.66,0,0,0-.75,1.31V45.84c0,.48.33.68.75.44l30.57-17.61a1.67,1.67,0,0,0,.76-1.31V10.3C135.15,9.81,134.81,9.62,134.39,9.86Z"/></g></g></g><path class="cls-38" d="M110.62,31.84c0,.13,0,.32,0,.55v1.43c0,.24,0,.42,0,.54a2.71,2.71,0,0,0,.09.61.91.91,0,0,0,.21.44.51.51,0,0,0,.37.16,1.1,1.1,0,0,0,.56-.17,2.2,2.2,0,0,0,.54-.44,2.73,2.73,0,0,0,.36-.5A2.41,2.41,0,0,0,113,34c0-.17.08-.32.11-.46a1.83,1.83,0,0,1,.11-.4.47.47,0,0,1,.22-.22l1.28-.74a.12.12,0,0,1,.15,0,.28.28,0,0,1,.06.2,5.94,5.94,0,0,1-.24,1.58A7.62,7.62,0,0,1,113,36.82a5,5,0,0,1-1.19,1,2.58,2.58,0,0,1-1.26.4,1.42,1.42,0,0,1-.94-.33,2.09,2.09,0,0,1-.6-1,5,5,0,0,1-.24-1.43c0-.4,0-.84,0-1.31s0-.93,0-1.36a7.91,7.91,0,0,1,.24-1.71,7.73,7.73,0,0,1,.6-1.65,6.73,6.73,0,0,1,.94-1.42A4.83,4.83,0,0,1,111.85,27a2.7,2.7,0,0,1,1.19-.4,1.68,1.68,0,0,1,1,.24,1.7,1.7,0,0,1,.65.8,3.35,3.35,0,0,1,.24,1.3.66.66,0,0,1-.06.27.35.35,0,0,1-.15.18l-1.28.74c-.11.07-.19.08-.22,0a.58.58,0,0,1-.11-.27c0-.11-.07-.22-.11-.33a.61.61,0,0,0-.21-.26.66.66,0,0,0-.36-.09,1.16,1.16,0,0,0-.54.2,1.94,1.94,0,0,0-.56.46,2.62,2.62,0,0,0-.37.6,2.56,2.56,0,0,0-.21.68A4.18,4.18,0,0,0,110.62,31.84Z"/><path class="cls-38" d="M118.92,22.9a2.66,2.66,0,0,1,1.15-.39,1.71,1.71,0,0,1,.9.19,1.62,1.62,0,0,1,.6.62,1.88,1.88,0,0,1,.22.88.66.66,0,0,1-.06.27.39.39,0,0,1-.14.18l-1.28.74a.36.36,0,0,1-.22.06.27.27,0,0,1-.17-.08l-.09-.09a.57.57,0,0,0-.18-.12.58.58,0,0,0-.3,0,1.1,1.1,0,0,0-.43.16,2.71,2.71,0,0,0-.35.24,2.22,2.22,0,0,0-.31.3,1.26,1.26,0,0,0-.21.36,1,1,0,0,0-.08.42.45.45,0,0,0,.09.32.4.4,0,0,0,.31.1A2.49,2.49,0,0,0,119,27l.9-.23a2.78,2.78,0,0,1,.94-.12,1.1,1.1,0,0,1,.67.25,1.46,1.46,0,0,1,.4.67,4.5,4.5,0,0,1,.13,1.15,5.1,5.1,0,0,1-.23,1.5,6.19,6.19,0,0,1-.63,1.39,6.94,6.94,0,0,1-.95,1.21,6,6,0,0,1-1.21.92,3,3,0,0,1-1.21.43,1.59,1.59,0,0,1-.94-.18,1.48,1.48,0,0,1-.62-.64,2.07,2.07,0,0,1-.23-1A.66.66,0,0,1,116,32a.39.39,0,0,1,.14-.18l1.28-.73a.4.4,0,0,1,.21-.08.33.33,0,0,1,.16.07l.12.13a.72.72,0,0,0,.21.16.68.68,0,0,0,.33.05,1,1,0,0,0,.49-.18,3.78,3.78,0,0,0,.87-.67,1.18,1.18,0,0,0,.34-.82.33.33,0,0,0-.12-.3.64.64,0,0,0-.39-.06,3.44,3.44,0,0,0-.64.12c-.27.08-.58.16-.94.24a1.4,1.4,0,0,1-1.46-.25,2.68,2.68,0,0,1-.47-1.8,5.49,5.49,0,0,1,.19-1.35A6.49,6.49,0,0,1,116.9,25a5.82,5.82,0,0,1,.88-1.22A4.75,4.75,0,0,1,118.92,22.9Z"/><path class="cls-38" d="M126,18.82a2.66,2.66,0,0,1,1.15-.39,1.66,1.66,0,0,1,.9.2,1.51,1.51,0,0,1,.59.61,1.89,1.89,0,0,1,.23.88.66.66,0,0,1-.06.27.4.4,0,0,1-.15.18l-1.28.74a.34.34,0,0,1-.21.06.29.29,0,0,1-.18-.08l-.09-.09a.41.41,0,0,0-.18-.12.54.54,0,0,0-.29,0,1,1,0,0,0-.43.16l-.36.24a2.83,2.83,0,0,0-.3.3,1.17,1.17,0,0,0-.21.36,1,1,0,0,0-.09.42.41.41,0,0,0,.1.32.39.39,0,0,0,.31.1,2.57,2.57,0,0,0,.58-.09l.9-.23a2.73,2.73,0,0,1,.93-.12,1.14,1.14,0,0,1,.67.25,1.38,1.38,0,0,1,.4.67,4.09,4.09,0,0,1,.13,1.15,5.09,5.09,0,0,1-.22,1.5,6,6,0,0,1-.63,1.39,6.55,6.55,0,0,1-1,1.21,5.89,5.89,0,0,1-1.2.92,3.11,3.11,0,0,1-1.21.43,1.66,1.66,0,0,1-.94-.17,1.5,1.5,0,0,1-.62-.65,2.19,2.19,0,0,1-.24-1,.54.54,0,0,1,.07-.27.39.39,0,0,1,.14-.18l1.28-.73a.4.4,0,0,1,.21-.08.43.43,0,0,1,.16.07l.11.13a1.16,1.16,0,0,0,.21.16.68.68,0,0,0,.33.05,1,1,0,0,0,.5-.18,3.72,3.72,0,0,0,.86-.67,1.19,1.19,0,0,0,.35-.82.31.31,0,0,0-.13-.3.6.6,0,0,0-.38-.06,3.38,3.38,0,0,0-.65.12q-.39.12-.93.24a1.42,1.42,0,0,1-1.47-.25,2.69,2.69,0,0,1-.46-1.8,4.92,4.92,0,0,1,.19-1.34A5.88,5.88,0,0,1,124,21a6.15,6.15,0,0,1,.87-1.22A4.8,4.8,0,0,1,126,18.82Z"/></g><g id="Text_Box-2" data-name="Text Box"><g id="_3" data-name="{}"><g id="Speech_Bubble-3" data-name="Speech Bubble"><g id="Speach_Bubble-2" data-name="Speach Bubble"><path class="cls-11" d="M129.85,42.74,99.28,60.34a1.69,1.69,0,0,0-.76,1.32V78.72a1.62,1.62,0,0,0,.77,1.3l3,1.72a1.69,1.69,0,0,0,1.52,0l30.57-17.6a1.69,1.69,0,0,0,.76-1.32V45.75a1.65,1.65,0,0,0-.77-1.3l-3-1.72A1.69,1.69,0,0,0,129.85,42.74Z"/><path class="cls-5" d="M135.14,45.61c-.06-.38-.38-.51-.75-.3L103.83,62.92a1.49,1.49,0,0,0-.54.57l-4.53-2.61a1.68,1.68,0,0,1,.52-.54l30.57-17.6a1.69,1.69,0,0,1,1.52,0l3,1.71A1.72,1.72,0,0,1,135.14,45.61Z"/><path class="cls-4" d="M134.39,45.31,103.82,62.92a1.66,1.66,0,0,0-.75,1.31V81.29c0,.49.33.68.75.44l30.57-17.6a1.69,1.69,0,0,0,.76-1.32V45.75C135.15,45.27,134.81,45.07,134.39,45.31Z"/></g></g></g><path class="cls-38" d="M110.76,63.21a.15.15,0,0,1,.19,0,.33.33,0,0,1,.08.24v9.7a.8.8,0,0,1-.08.33.45.45,0,0,1-.19.23l-1.27.74c-.08,0-.14,0-.19,0a.33.33,0,0,1-.08-.24V70.53l-2.16,1.25v3.69a.8.8,0,0,1-.08.33.47.47,0,0,1-.19.22l-1.28.74a.15.15,0,0,1-.18,0,.34.34,0,0,1-.08-.25V66.8a.8.8,0,0,1,.08-.33.54.54,0,0,1,.18-.23l1.28-.73a.14.14,0,0,1,.19,0,.33.33,0,0,1,.08.24v3.62l2.16-1.25V64.51a.8.8,0,0,1,.08-.33.45.45,0,0,1,.19-.23Z"/><path class="cls-38" d="M117.9,59.09a.14.14,0,0,1,.18,0,.29.29,0,0,1,.08.24v1.59a.67.67,0,0,1-.08.33.49.49,0,0,1-.18.23l-1.72,1V70.2a.8.8,0,0,1-.08.33.54.54,0,0,1-.18.23l-1.28.73a.14.14,0,0,1-.19,0,.33.33,0,0,1-.07-.24V63.53l-1.72,1a.14.14,0,0,1-.19,0,.33.33,0,0,1-.08-.24V62.68a.8.8,0,0,1,.08-.33.5.5,0,0,1,.19-.23Z"/><path class="cls-38" d="M122.38,64.37a.7.7,0,0,1-.13-.17l-.92-2v5a.78.78,0,0,1-.07.33.57.57,0,0,1-.19.23l-1.28.74a.14.14,0,0,1-.18,0,.29.29,0,0,1-.08-.24V58.56a.67.67,0,0,1,.08-.33.49.49,0,0,1,.18-.23l1.13-.65c.13-.08.23-.08.3,0a1.44,1.44,0,0,1,.12.17l1.58,3.25,1.59-5.07a2,2,0,0,1,.12-.32.65.65,0,0,1,.3-.33l1.13-.66a.14.14,0,0,1,.18,0,.33.33,0,0,1,.08.24v9.7a.8.8,0,0,1-.08.33.49.49,0,0,1-.18.23l-1.28.74a.15.15,0,0,1-.19,0,.33.33,0,0,1-.08-.24v-5l-.91,3c0,.1-.08.21-.13.33a.73.73,0,0,1-.23.26l-.63.36C122.51,64.42,122.44,64.42,122.38,64.37Z"/><path class="cls-38" d="M133,58.51a.14.14,0,0,1,.18,0,.33.33,0,0,1,.08.24v1.59a.8.8,0,0,1-.08.33.49.49,0,0,1-.18.23l-4.52,2.61a.15.15,0,0,1-.19,0,.33.33,0,0,1-.08-.24v-9.7a.8.8,0,0,1,.08-.33.57.57,0,0,1,.19-.23l1.28-.74a.14.14,0,0,1,.18,0,.33.33,0,0,1,.08.24v7.71Z"/></g><g id="Text_Box-3" data-name="Text Box"><g id="_4" data-name="{}"><g id="Speech_Bubble-4" data-name="Speech Bubble"><g id="Speach_Bubble-3" data-name="Speach Bubble"><path class="cls-11" d="M129.85,78.19,99.28,95.8a1.67,1.67,0,0,0-.76,1.31v17.06a1.64,1.64,0,0,0,.77,1.31l3,1.72a1.73,1.73,0,0,0,1.52,0l30.57-17.61a1.67,1.67,0,0,0,.76-1.31V81.21a1.67,1.67,0,0,0-.77-1.31l-3-1.71A1.69,1.69,0,0,0,129.85,78.19Z"/><path class="cls-5" d="M135.14,81.07c-.06-.38-.38-.52-.75-.3L103.83,98.38a1.53,1.53,0,0,0-.54.56l-4.53-2.6a1.59,1.59,0,0,1,.52-.54l30.57-17.61a1.73,1.73,0,0,1,1.52,0l3,1.72A1.72,1.72,0,0,1,135.14,81.07Z"/><path class="cls-4" d="M134.39,80.77,103.82,98.38a1.66,1.66,0,0,0-.75,1.31v17.06c0,.48.33.68.75.44l30.57-17.61a1.67,1.67,0,0,0,.76-1.31V81.21C135.15,80.72,134.81,80.53,134.39,80.77Z"/></g></g></g><path class="cls-38" d="M111.21,102.41c0,.13,0,.31,0,.55s0,.47,0,.71,0,.49,0,.72,0,.41,0,.54a4.94,4.94,0,0,0,.09.61,1,1,0,0,0,.22.43.5.5,0,0,0,.37.17,1,1,0,0,0,.55-.18,2,2,0,0,0,.55-.43,3,3,0,0,0,.35-.5,2.66,2.66,0,0,0,.21-.5,3.35,3.35,0,0,0,.11-.46,2.35,2.35,0,0,1,.11-.4.53.53,0,0,1,.22-.23l1.28-.73a.11.11,0,0,1,.15,0,.22.22,0,0,1,.07.19,6,6,0,0,1-.25,1.59,7.16,7.16,0,0,1-.64,1.54,6.8,6.8,0,0,1-1,1.34,5,5,0,0,1-1.2,1,2.55,2.55,0,0,1-1.25.4,1.46,1.46,0,0,1-.94-.34,2.1,2.1,0,0,1-.6-1,5.08,5.08,0,0,1-.24-1.43c0-.41,0-.84,0-1.31s0-.93,0-1.37a7.8,7.8,0,0,1,.23-1.7,8.32,8.32,0,0,1,.6-1.65,6.86,6.86,0,0,1,.94-1.42,4.83,4.83,0,0,1,1.26-1,2.7,2.7,0,0,1,1.2-.4,1.53,1.53,0,0,1,1,.24,1.64,1.64,0,0,1,.64.8,3.34,3.34,0,0,1,.25,1.3.54.54,0,0,1-.07.27.35.35,0,0,1-.15.18l-1.28.74c-.11.06-.18.07-.22,0a.72.72,0,0,1-.11-.27,1.42,1.42,0,0,0-.11-.33.61.61,0,0,0-.21-.26.56.56,0,0,0-.35-.09,1.16,1.16,0,0,0-.55.19,1.93,1.93,0,0,0-.55.47,2.43,2.43,0,0,0-.37.59,3.37,3.37,0,0,0-.22.68Q111.24,102.05,111.21,102.41Z"/><path class="cls-38" d="M120.17,100.4v2.48a.67.67,0,0,1-.08.33.49.49,0,0,1-.18.23l-1.23.71a.15.15,0,0,1-.19,0,.33.33,0,0,1-.07-.24v-2.48l-1.52.87a.14.14,0,0,1-.18,0,.33.33,0,0,1-.08-.24v-1.52a.8.8,0,0,1,.08-.33.49.49,0,0,1,.18-.23l1.52-.87V96.61a.78.78,0,0,1,.07-.33.57.57,0,0,1,.19-.23l1.23-.71a.13.13,0,0,1,.18,0,.29.29,0,0,1,.08.24v2.47l1.51-.86a.14.14,0,0,1,.18,0,.33.33,0,0,1,.08.24V99a.8.8,0,0,1-.08.33.54.54,0,0,1-.18.23Z"/><path class="cls-38" d="M126.64,96.67v2.48a.78.78,0,0,1-.07.33.53.53,0,0,1-.19.22l-1.23.71a.14.14,0,0,1-.19,0,.33.33,0,0,1-.07-.24V97.68l-1.52.88a.14.14,0,0,1-.18,0,.33.33,0,0,1-.08-.24V96.78a.8.8,0,0,1,.08-.33.46.46,0,0,1,.18-.22l1.52-.88V92.87a.78.78,0,0,1,.07-.33.53.53,0,0,1,.19-.22l1.23-.71a.14.14,0,0,1,.19,0,.33.33,0,0,1,.07.24v2.48l1.51-.87a.14.14,0,0,1,.18,0,.33.33,0,0,1,.08.24v1.52a.8.8,0,0,1-.08.33.49.49,0,0,1-.18.23Z"/></g><text class="cls-39" transform="translate(378.34 204.56)">Hey, Im Tsahi!</text></g></svg>